<svg id="Layer_1" data-name="Layer 1" xmlns="http://www.w3.org/2000/svg" xmlns:xlink="http://www.w3.org/1999/xlink" viewBox="0 0 602 492.5"><defs><style>.cls-1{fill:url(#linear-gradient);}.cls-2{fill:url(#linear-gradient-2);}.cls-3{fill:url(#linear-gradient-5);}.cls-4{fill:url(#linear-gradient-6);}.cls-5,.cls-58{fill:#fff;}.cls-6{fill:#b3b3b3;}.cls-18,.cls-19,.cls-29,.cls-6,.cls-7,.cls-8{stroke:#000;}.cls-18,.cls-19,.cls-6,.cls-7,.cls-8{stroke-miterlimit:10;}.cls-6,.cls-7{stroke-width:2px;}.cls-19,.cls-7,.cls-8{fill:none;}.cls-8{stroke-width:3px;}.cls-9{font-size:25px;}.cls-20,.cls-35,.cls-9{font-family:MyriadPro-Regular, Myriad Pro;}.cls-10{letter-spacing:-0.04em;}.cls-11{letter-spacing:0em;}.cls-12,.cls-16{font-size:20px;font-family:MyriadPro-Bold, Myriad Pro;}.cls-12,.cls-16,.cls-34{font-weight:700;}.cls-13{letter-spacing:-0.01em;}.cls-14{letter-spacing:-0.01em;}.cls-15{letter-spacing:-0.01em;}.cls-16{letter-spacing:-0.08em;}.cls-17{letter-spacing:0em;}.cls-18,.cls-29{fill:#f2f2f2;}.cls-20{font-size:12px;}.cls-21{letter-spacing:0em;}.cls-22{letter-spacing:0em;}.cls-23{letter-spacing:-0.01em;}.cls-24{letter-spacing:-0.03em;}.cls-25{letter-spacing:0em;}.cls-26{letter-spacing:0.01em;}.cls-27{letter-spacing:-0.01em;}.cls-28{letter-spacing:-0.01em;}.cls-30{letter-spacing:-0.01em;}.cls-31{letter-spacing:0em;}.cls-32{letter-spacing:0em;}.cls-33{letter-spacing:-0.01em;}.cls-34,.cls-35{font-size:11px;}.cls-34{font-family:Arial-BoldMT, Arial;}.cls-36{letter-spacing:0em;}.cls-37{letter-spacing:-0.03em;}.cls-38{letter-spacing:-0.01em;}.cls-39{letter-spacing:0.02em;}.cls-40{letter-spacing:-0.01em;}.cls-41{letter-spacing:-0.01em;}.cls-42{letter-spacing:-0.01em;}.cls-43{letter-spacing:0.03em;}.cls-44{letter-spacing:0em;}.cls-45{letter-spacing:-0.01em;}.cls-46{letter-spacing:0em;}.cls-47{letter-spacing:0.01em;}.cls-48{letter-spacing:0em;}.cls-49{letter-spacing:-0.01em;}.cls-50{letter-spacing:0.01em;}.cls-51{letter-spacing:-0.02em;}.cls-52{letter-spacing:-0.01em;}.cls-53{letter-spacing:0em;}.cls-54{letter-spacing:-0.01em;}.cls-55{fill:url(#radial-gradient);}.cls-56{mask:url(#mask);}.cls-57{mask:url(#mask-2);}.cls-58{opacity:0.5;}.cls-59{fill:#3b2314;}.cls-60{fill:#005965;}.cls-61{fill:url(#radial-gradient-2);}.cls-62{fill:url(#radial-gradient-3);}.cls-63{fill:#231f20;}.cls-64{fill:url(#radial-gradient-4);}.cls-65{fill:url(#radial-gradient-5);}.cls-66{fill:#3d000c;}.cls-67{fill:url(#linear-gradient-7);}.cls-68{fill:#f16e6c;}.cls-69{fill:#c43032;}.cls-70{fill:#200005;}.cls-71{fill:#d0d2d3;}.cls-72{fill:url(#radial-gradient-11);}.cls-73{mask:url(#mask-5);}.cls-74{mask:url(#mask-6);}.cls-75{fill:url(#radial-gradient-12);}.cls-76{fill:url(#radial-gradient-13);}.cls-77{fill:url(#linear-gradient-9);}.cls-78{fill:#79cfe1;}.cls-79{letter-spacing:-0.01em;}.cls-80{letter-spacing:-0.01em;}.cls-81{letter-spacing:-0.01em;}.cls-82{letter-spacing:-0.01em;}.cls-83{letter-spacing:-0.01em;}.cls-84{letter-spacing:-0.01em;}.cls-85{letter-spacing:0.02em;}.cls-86{letter-spacing:-0.01em;}.cls-87{letter-spacing:-0.04em;}</style><linearGradient id="linear-gradient" x1="-3668.48" y1="-5639.46" x2="-3647.73" y2="-5639.46" gradientTransform="translate(-5290.91 3976.85) rotate(90)" gradientUnits="userSpaceOnUse"><stop offset="0" stop-color="#fff"/><stop offset="0.01" stop-color="#f6f6f6"/><stop offset="0.07" stop-color="#c5c4c4"/><stop offset="0.14" stop-color="#9a9898"/><stop offset="0.21" stop-color="#757373"/><stop offset="0.28" stop-color="#575455"/><stop offset="0.35" stop-color="#403d3e"/><stop offset="0.43" stop-color="#302c2d"/><stop offset="0.52" stop-color="#262223"/><stop offset="0.63" stop-color="#231f20"/></linearGradient><linearGradient id="linear-gradient-2" x1="-5209.18" y1="4274.4" x2="-5188.43" y2="4274.4" gradientTransform="translate(-3925.86 -4856.37) rotate(-90)" xlink:href="#linear-gradient"/><linearGradient id="linear-gradient-5" x1="-3589.7" y1="-5640.2" x2="-3567.66" y2="-5640.2" xlink:href="#linear-gradient"/><linearGradient id="linear-gradient-6" x1="-5290.72" y1="4275.14" x2="-5268.68" y2="4275.14" gradientTransform="translate(-3925.86 -4856.37) rotate(-90)" xlink:href="#linear-gradient"/><radialGradient id="radial-gradient" cx="-3646.38" cy="-5639.46" r="22.93" gradientTransform="translate(-5290.91 3976.85) rotate(90)" gradientUnits="userSpaceOnUse"><stop offset="0.19" stop-color="#00bde4"/><stop offset="1" stop-color="#007791"/></radialGradient><mask id="mask" x="334.81" y="309.37" width="29.48" height="20.75" maskUnits="userSpaceOnUse"><g transform="translate(1 1)"><ellipse class="cls-1" cx="348.55" cy="318.75" rx="14.74" ry="10.38"/></g></mask><mask id="mask-2" x="334.81" y="333.06" width="29.48" height="20.75" maskUnits="userSpaceOnUse"><g transform="translate(1 1)"><path class="cls-2" d="M348.55,332.06c8.14,0,14.74,4.65,14.74,10.38s-6.6,10.37-14.74,10.37-14.74-4.64-14.74-10.37S340.41,332.06,348.55,332.06Z"/></g></mask><radialGradient id="radial-gradient-2" cx="-22.57" cy="-2344.33" r="4.72" gradientTransform="matrix(1.05, 0, 0, 1.29, 363.3, 3356.2)" gradientUnits="userSpaceOnUse"><stop offset="0.39" stop-color="#fff"/><stop offset="0.47" stop-color="#f9f9f9"/><stop offset="0.57" stop-color="#e7e7e8"/><stop offset="0.69" stop-color="#cacbcb"/><stop offset="0.82" stop-color="#a2a3a4"/><stop offset="0.96" stop-color="#6f7072"/><stop offset="1" stop-color="#5f6062"/></radialGradient><radialGradient id="radial-gradient-3" cx="-458.85" cy="-2310.28" r="2.16" gradientTransform="matrix(1.13, 0, 0, 1.41, 858.3, 3579.41)" gradientUnits="userSpaceOnUse"><stop offset="0.19" stop-color="#00bde4"/><stop offset="1" stop-color="#004f65"/></radialGradient><radialGradient id="radial-gradient-4" cx="-11777.13" cy="-2339.78" r="4.72" gradientTransform="matrix(-1.05, 0, 0, 1.29, -11984.09, 3356.2)" xlink:href="#radial-gradient-2"/><radialGradient id="radial-gradient-5" cx="-11345.89" cy="-2305.63" r="2.16" gradientTransform="matrix(-1.13, 0, 0, 1.41, -12479.09, 3579.41)" xlink:href="#radial-gradient-3"/><linearGradient id="linear-gradient-7" x1="348.58" y1="349.69" x2="348.58" y2="344.95" gradientUnits="userSpaceOnUse"><stop offset="0.09" stop-color="#eb524f"/><stop offset="1" stop-color="#a22f33"/></linearGradient><radialGradient id="radial-gradient-11" cx="-3566.22" cy="-5640.2" r="24.35" xlink:href="#radial-gradient"/><mask id="mask-5" x="334.63" y="388.16" width="31.31" height="22.04" maskUnits="userSpaceOnUse"><g transform="translate(1 1)"><path class="cls-3" d="M349.28,409.2c-8.64,0-15.65-4.94-15.65-11s7-11,15.65-11,15.66,4.93,15.66,11S357.93,409.2,349.28,409.2Z"/></g></mask><mask id="mask-6" x="334.63" y="413.31" width="31.31" height="22.04" maskUnits="userSpaceOnUse"><g transform="translate(1 1)"><path class="cls-4" d="M349.28,412.31c8.65,0,15.66,4.94,15.66,11s-7,11-15.66,11-15.65-4.93-15.65-11S340.64,412.31,349.28,412.31Z"/></g></mask><radialGradient id="radial-gradient-12" cx="32.4" cy="-2908.87" r="4.61" gradientTransform="matrix(1.04, 0.14, -0.18, 1.28, -210.08, 4123.76)" xlink:href="#radial-gradient"/><radialGradient id="radial-gradient-13" cx="-11856.2" cy="-1310.14" r="4.61" gradientTransform="matrix(-1.03, 0.2, 0.25, 1.27, -11497.63, 4492.63)" xlink:href="#radial-gradient"/><linearGradient id="linear-gradient-9" x1="349.16" y1="429.71" x2="349.16" y2="424.68" xlink:href="#linear-gradient-7"/></defs><rect class="cls-5" x="1" y="1" width="600" height="490.5"/><rect class="cls-6" x="1" y="1" width="600" height="84"/><rect class="cls-7" x="1" y="1" width="600" height="490.5"/><rect class="cls-7" x="24.08" y="115" width="553.85" height="133.5"/><line class="cls-8" x1="24.08" y1="115" x2="577.92" y2="248.5"/><line class="cls-8" x1="577.92" y1="115" x2="24.08" y2="248.5"/><rect class="cls-5" x="217" y="166.67" width="170.25" height="30.09"/><text class="cls-9" transform="translate(231.18 192.53)">BIG<tspan class="cls-10" x="35.67" y="0"> </tspan><tspan class="cls-11" x="40.07" y="0">WINDOW</tspan></text><text class="cls-12" transform="translate(103.43 288.72)"><tspan class="cls-13">W</tspan><tspan x="17.6" y="0">h</tspan><tspan class="cls-14" x="29.32" y="0">a</tspan><tspan x="39.72" y="0">t </tspan><tspan class="cls-15" x="51.1" y="0">w</tspan><tspan x="65.98" y="0">e do</tspan></text><text class="cls-16" transform="translate(402.45 288.94)">T<tspan class="cls-17" x="9.34" y="0">estimonials</tspan></text><rect class="cls-18" x="448.75" y="42.39" width="139.5" height="26.25" rx="13.12"/><rect class="cls-18" x="164" y="42.39" width="258.23" height="26.25" rx="3.69"/><circle class="cls-19" cx="460" cy="54.36" r="4.75"/><line class="cls-19" x1="463.68" y1="57.37" x2="469.25" y2="61.42"/><text class="cls-20" transform="translate(172 59.5)"><tspan class="cls-21">h</tspan><tspan class="cls-22" x="6.61" y="0">ttp/</tspan><tspan class="cls-23" x="25.5" y="0">T</tspan><tspan x="31.38" y="0">hanks</tspan><tspan class="cls-24" x="60.86" y="0">F</tspan><tspan x="66.34" y="0">or</tspan><tspan class="cls-25" x="76.85" y="0">R</tspan><tspan x="83.35" y="0">eading</tspan><tspan class="cls-26" x="118.09" y="0">M</tspan><tspan class="cls-27" x="127.81" y="0">e</tspan><tspan x="133.68" y="0">.</tspan><tspan class="cls-28" x="136.16" y="0">c</tspan><tspan x="141.47" y="0">om</tspan></text><path class="cls-29" d="M31.31,63.3,15.7,54.35l15.61-9.1Z" transform="translate(1 1)"/><polygon class="cls-29" points="58.09 46.24 73.7 55.35 58.09 64.3 58.09 46.24"/><path d="M410.88,53.19h4.57l-3.7,2.7,1.37,4.32-3.64-2.63-3.66,2.67,1.37-4.34-3.74-2.72h4.61l1.42-4.41Z" transform="translate(1 1)"/><text class="cls-20" transform="translate(260.55 26.58)"><tspan class="cls-30">w</tspan><tspan x="8.71" y="0">o</tspan><tspan class="cls-31" x="15.3" y="0">r</tspan><tspan class="cls-32" x="19.27" y="0">ld wide </tspan><tspan class="cls-33" x="58.38" y="0">w</tspan><tspan x="67.09" y="0">eb</tspan></text><path d="M88.43,60.25l5.74-6.13-5.49-5.83h2.37l4.28,4.77,4.22-4.77h2.29L96.49,54.1l5.94,6.15h-2.38l-4.68-5.07-4.68,5.07Z" transform="translate(1 1)"/><polygon class="cls-18" points="131.79 44.3 122.64 53.3 125.71 53.3 125.71 64.3 129.52 64.3 129.52 59.64 134.07 59.64 134.07 64.3 137.88 64.3 137.88 53.3 140.95 53.3 131.79 44.3"/><line class="cls-7" x1="300.52" y1="266.88" x2="301.88" y2="445.77"/><rect class="cls-6" x="1" y="471.25" width="600" height="20.25"/><line class="cls-6" x1="594" y1="478" x2="587" y2="486.5"/><line class="cls-6" x1="588.19" y1="478" x2="581.19" y2="486.5"/><rect class="cls-7" x="24.5" y="313.5" width="116.45" height="85.5"/><line class="cls-7" x1="24.5" y1="313.5" x2="140.95" y2="399"/><line class="cls-7" x1="140.95" y1="313.5" x2="24.5" y2="399"/><text class="cls-34" transform="translate(156.25 320.88)">The world of unlimited <tspan x="0" y="13.2">possibilities! </tspan></text><text class="cls-35" transform="translate(155.5 354.56)"><tspan class="cls-36">P</tspan><tspan x="5.8" y="0">lease do</tspan><tspan class="cls-37" x="43.65" y="0">n</tspan><tspan class="cls-38" x="49.39" y="0">’</tspan><tspan x="51.55" y="0">t t</tspan><tspan class="cls-39" x="61.16" y="0">r</tspan><tspan x="65.03" y="0">y </tspan><tspan class="cls-40" x="72.54" y="0">t</tspan><tspan x="76.12" y="0">o </tspan><tspan class="cls-41" x="84.49" y="0">r</tspan><tspan x="87.98" y="0">ead this </tspan><tspan x="0" y="13.2">going </tspan><tspan class="cls-42" x="29.35" y="13.2">f</tspan><tspan x="32.42" y="13.2">o</tspan><tspan class="cls-43" x="38.46" y="13.2">r</tspan><tspan class="cls-44" x="42.33" y="13.2">w</tspan><tspan x="50.38" y="13.2">a</tspan><tspan class="cls-41" x="55.68" y="13.2">r</tspan><tspan x="59.17" y="13.2">d because it is </tspan><tspan class="cls-45" x="0" y="26.4">L</tspan><tspan x="5.04" y="26.4">o</tspan><tspan class="cls-41" x="11.08" y="26.4">r</tspan><tspan x="14.56" y="26.4">em ipsum dolor sit ame</tspan><tspan class="cls-46" x="122.03" y="26.4">t</tspan><tspan x="125.64" y="26.4">, </tspan><tspan class="cls-40" x="0" y="39.6">c</tspan><tspan x="4.86" y="39.6">onse</tspan><tspan class="cls-47" x="26.87" y="39.6">c</tspan><tspan class="cls-40" x="31.94" y="39.6">t</tspan><tspan x="35.52" y="39.6">etuer adipiscing eli</tspan><tspan class="cls-48" x="122.21" y="39.6">t</tspan><tspan x="125.82" y="39.6">, </tspan></text><text class="cls-35" transform="translate(24.08 424.56)"><tspan class="cls-49">C</tspan><tspan x="6.26" y="0">onse</tspan><tspan class="cls-50" x="28.27" y="0">c</tspan><tspan class="cls-40" x="33.34" y="0">t</tspan><tspan x="36.92" y="0">etuer adipiscing hell</tspan><tspan class="cls-51" x="129.73" y="0">o</tspan><tspan x="135.51" y="0">, sed diam n</tspan><tspan class="cls-52" x="190.21" y="0">o</tspan><tspan x="196.17" y="0">w </tspan><tspan class="cls-41" x="206.6" y="0">y</tspan><tspan x="211.67" y="0">ou a</tspan><tspan class="cls-41" x="231.4" y="0">r</tspan><tspan x="234.89" y="0">e </tspan><tspan class="cls-53" x="0" y="13.2">w</tspan><tspan x="8.05" y="13.2">aisting </tspan><tspan class="cls-41" x="41.08" y="13.2">y</tspan><tspan x="46.16" y="13.2">our time! nibh euismod tincidu</tspan><tspan class="cls-53" x="187.66" y="13.2">n</tspan><tspan x="193.72" y="13.2">t ut lao</tspan><tspan class="cls-41" x="225.66" y="13.2">r</tspan><tspan x="229.15" y="13.2">eet </tspan><tspan x="0" y="26.4">dolo</tspan><tspan class="cls-41" x="20.88" y="26.4">r</tspan><tspan x="24.37" y="26.4">e ma</tspan><tspan class="cls-40" x="46.68" y="26.4">g</tspan><tspan x="52.77" y="26.4">na aliquam e</tspan><tspan class="cls-54" x="111.55" y="26.4">r</tspan><tspan class="cls-53" x="115.09" y="26.4">a</tspan><tspan x="120.35" y="26.4">t </tspan><tspan class="cls-41" x="126.32" y="26.4">v</tspan><tspan x="131.5" y="26.4">olutp</tspan><tspan class="cls-53" x="156.1" y="26.4">a</tspan><tspan class="cls-48" x="161.36" y="26.4">t</tspan><tspan x="164.96" y="26.4">. lol Haaa Haaa! </tspan></text><path class="cls-55" d="M348.55,354.25a22,22,0,0,1-22.05-22c0-12.18,9.87-25.51,22.05-25.51S370.6,320,370.6,332.21A22,22,0,0,1,348.55,354.25Z" transform="translate(1 1)"/><g class="cls-56"><ellipse class="cls-5" cx="349.55" cy="319.75" rx="14.74" ry="10.38"/></g><g class="cls-57"><path class="cls-58" d="M348.55,332.06c8.14,0,14.74,4.65,14.74,10.38s-6.6,10.37-14.74,10.37-14.74-4.64-14.74-10.37S340.41,332.06,348.55,332.06Z" transform="translate(1 1)"/></g><path class="cls-59" d="M345.69,318.5a1,1,0,0,1,0,1.69s-6.53-2.39-9.09-.79c0,0-1,.22-.49-.84C336.12,318.56,339.36,315.79,345.69,318.5Z" transform="translate(1 1)"/><path class="cls-59" d="M351.25,318.5a1.05,1.05,0,0,0,0,1.69s6.54-2.39,9.09-.79c0,0,1,.22.49-.84C360.82,318.56,357.58,315.79,351.25,318.5Z" transform="translate(1 1)"/><path class="cls-60" d="M346,328.25c0,3.47-2.34,6.28-5.23,6.27s-5.22-2.81-5.22-6.27,2.35-6.27,5.23-6.27S346,324.79,346,328.25Z" transform="translate(1 1)"/><path class="cls-61" d="M346,328.25c0,3.28-2.22,5.94-4.95,5.94s-4.94-2.66-4.94-5.94,2.21-5.94,4.95-5.94S346,325,346,328.25Z" transform="translate(1 1)"/><path class="cls-62" d="M343.3,328.35a2.57,2.57,0,1,1-2.52-3.1A2.85,2.85,0,0,1,343.3,328.35Z" transform="translate(1 1)"/><path class="cls-63" d="M342.32,328.35a1.55,1.55,0,1,1-1.54-1.67A1.61,1.61,0,0,1,342.32,328.35Z" transform="translate(1 1)"/><path class="cls-5" d="M340.29,327.35a.58.58,0,0,1-.62.54.58.58,0,0,1-.61-.54.62.62,0,0,1,1.23,0Z" transform="translate(1 1)"/><path class="cls-60" d="M350.81,328.25c0,3.47,2.35,6.28,5.23,6.27s5.23-2.81,5.23-6.27S358.92,322,356,322,350.81,324.79,350.81,328.25Z" transform="translate(1 1)"/><path class="cls-64" d="M350.81,328.25c0,3.28,2.22,5.94,5,5.94s4.94-2.66,4.94-5.94-2.22-5.94-4.95-5.94S350.81,325,350.81,328.25Z" transform="translate(1 1)"/><path class="cls-65" d="M353.52,328.35a2.57,2.57,0,1,0,2.52-3.1A2.85,2.85,0,0,0,353.52,328.35Z" transform="translate(1 1)"/><path class="cls-63" d="M354.5,328.35a1.55,1.55,0,1,0,1.54-1.67A1.61,1.61,0,0,0,354.5,328.35Z" transform="translate(1 1)"/><path class="cls-5" d="M356.53,327.35a.62.62,0,1,0,.61-.54A.58.58,0,0,0,356.53,327.35Z" transform="translate(1 1)"/><path class="cls-66" d="M336.79,338.66A7,7,0,0,0,337,340c1.9,5.12,6.43,9.74,11.57,9.72s9.67-4.6,11.57-9.72a6.27,6.27,0,0,0,.18-1.37C352.55,341,347.11,341.59,336.79,338.66Z" transform="translate(1 1)"/><path class="cls-67" d="M341.61,346.86s7-4.23,13.94-.05C355.55,346.81,349.05,353.56,341.61,346.86Z" transform="translate(1 1)"/><path class="cls-68" d="M354.31,347.75a.47.47,0,0,1-.32.21c-2.25.47-4.22,1.32-6.58,1.16a11.48,11.48,0,0,1-4.06-.9,9.39,9.39,0,0,0,11-.45Z" transform="translate(1 1)"/><path class="cls-69" d="M347.13,345.08a11.23,11.23,0,0,1,3.23,0,6.54,6.54,0,0,0-1.61,3.83S348.17,345.93,347.13,345.08Z" transform="translate(1 1)"/><path class="cls-70" d="M338.69,343.44s10.51-5,19.58.22a18.38,18.38,0,0,1-2.72,3.15s-6.11-4.19-13.94.05A20.21,20.21,0,0,1,338.69,343.44Z" transform="translate(1 1)"/><path class="cls-5" d="M339.93,339.48c1.34.3,2.5.53,3.77.71a32.83,32.83,0,0,0,7.61.28c.87-.08,1.74-.17,2.61-.3s1.64-.36,2.46-.45c0,0-.24,1-.27,1a2.38,2.38,0,0,1-.55.9,4.13,4.13,0,0,1-2.41.92l-2,.25a25.67,25.67,0,0,1-3.72.06,21.46,21.46,0,0,1-4-.33,6,6,0,0,1-2.42-1A3.92,3.92,0,0,1,339.93,339.48Z" transform="translate(1 1)"/><path class="cls-71" d="M341.61,339.84l.2,0a15.6,15.6,0,0,0,.32,2.3S341.63,341.77,341.61,339.84Z" transform="translate(1 1)"/><path class="cls-71" d="M343.18,340.11l.21,0a18,18,0,0,0,.32,2.48S343.21,342.19,343.18,340.11Z" transform="translate(1 1)"/><path class="cls-71" d="M345.07,340.34l.21,0a18,18,0,0,0,.32,2.48S345.1,342.42,345.07,340.34Z" transform="translate(1 1)"/><path class="cls-71" d="M346.74,340.52l.29,0s0,1.86,0,2.36h-.14A12.83,12.83,0,0,1,346.74,340.52Z" transform="translate(1 1)"/><path class="cls-71" d="M355,340l-.2,0a15.9,15.9,0,0,1-.33,2.3S355,341.9,355,340Z" transform="translate(1 1)"/><path class="cls-71" d="M353.44,340.23l-.23,0a13,13,0,0,1-.23,2.35S353.41,342.32,353.44,340.23Z" transform="translate(1 1)"/><path class="cls-71" d="M351.55,340.45l-.21,0a14,14,0,0,1-.25,2.38S351.52,342.53,351.55,340.45Z" transform="translate(1 1)"/><path class="cls-71" d="M349.87,340.56l-.28,0s0,1.87,0,2.36h.14A13.18,13.18,0,0,0,349.87,340.56Z" transform="translate(1 1)"/><path class="cls-71" d="M348.31,340.56l.29,0s0,1.87,0,2.36h-.14A12.83,12.83,0,0,1,348.31,340.56Z" transform="translate(1 1)"/><path class="cls-55" d="M348.55,354.25a22,22,0,0,1-22.05-22c0-12.18,9.87-25.51,22.05-25.51S370.6,320,370.6,332.21A22,22,0,0,1,348.55,354.25Z" transform="translate(1 1)"/><g class="cls-56"><ellipse class="cls-5" cx="349.55" cy="319.75" rx="14.74" ry="10.38"/></g><g class="cls-57"><path class="cls-58" d="M348.55,332.06c8.14,0,14.74,4.65,14.74,10.38s-6.6,10.37-14.74,10.37-14.74-4.64-14.74-10.37S340.41,332.06,348.55,332.06Z" transform="translate(1 1)"/></g><path class="cls-59" d="M345.69,318.5a1,1,0,0,1,0,1.69s-6.53-2.39-9.09-.79c0,0-1,.22-.49-.84C336.12,318.56,339.36,315.79,345.69,318.5Z" transform="translate(1 1)"/><path class="cls-59" d="M351.25,318.5a1.05,1.05,0,0,0,0,1.69s6.54-2.39,9.09-.79c0,0,1,.22.49-.84C360.82,318.56,357.58,315.79,351.25,318.5Z" transform="translate(1 1)"/><path class="cls-60" d="M346,328.25c0,3.47-2.34,6.28-5.23,6.27s-5.22-2.81-5.22-6.27,2.35-6.27,5.23-6.27S346,324.79,346,328.25Z" transform="translate(1 1)"/><path class="cls-61" d="M346,328.25c0,3.28-2.22,5.94-4.95,5.94s-4.94-2.66-4.94-5.94,2.21-5.94,4.95-5.94S346,325,346,328.25Z" transform="translate(1 1)"/><path class="cls-62" d="M343.3,328.35a2.57,2.57,0,1,1-2.52-3.1A2.85,2.85,0,0,1,343.3,328.35Z" transform="translate(1 1)"/><path class="cls-63" d="M342.32,328.35a1.55,1.55,0,1,1-1.54-1.67A1.61,1.61,0,0,1,342.32,328.35Z" transform="translate(1 1)"/><path class="cls-5" d="M340.29,327.35a.58.58,0,0,1-.62.54.58.58,0,0,1-.61-.54.62.62,0,0,1,1.23,0Z" transform="translate(1 1)"/><path class="cls-60" d="M350.81,328.25c0,3.47,2.35,6.28,5.23,6.27s5.23-2.81,5.23-6.27S358.92,322,356,322,350.81,324.79,350.81,328.25Z" transform="translate(1 1)"/><path class="cls-64" d="M350.81,328.25c0,3.28,2.22,5.94,5,5.94s4.94-2.66,4.94-5.94-2.22-5.94-4.95-5.94S350.81,325,350.81,328.25Z" transform="translate(1 1)"/><path class="cls-65" d="M353.52,328.35a2.57,2.57,0,1,0,2.52-3.1A2.85,2.85,0,0,0,353.52,328.35Z" transform="translate(1 1)"/><path class="cls-63" d="M354.5,328.35a1.55,1.55,0,1,0,1.54-1.67A1.61,1.61,0,0,0,354.5,328.35Z" transform="translate(1 1)"/><path class="cls-5" d="M356.53,327.35a.62.62,0,1,0,.61-.54A.58.58,0,0,0,356.53,327.35Z" transform="translate(1 1)"/><path class="cls-66" d="M336.79,338.66A7,7,0,0,0,337,340c1.9,5.12,6.43,9.74,11.57,9.72s9.67-4.6,11.57-9.72a6.27,6.27,0,0,0,.18-1.37C352.55,341,347.11,341.59,336.79,338.66Z" transform="translate(1 1)"/><path class="cls-67" d="M341.61,346.86s7-4.23,13.94-.05C355.55,346.81,349.05,353.56,341.61,346.86Z" transform="translate(1 1)"/><path class="cls-68" d="M354.31,347.75a.47.47,0,0,1-.32.21c-2.25.47-4.22,1.32-6.58,1.16a11.48,11.48,0,0,1-4.06-.9,9.39,9.39,0,0,0,11-.45Z" transform="translate(1 1)"/><path class="cls-69" d="M347.13,345.08a11.23,11.23,0,0,1,3.23,0,6.54,6.54,0,0,0-1.61,3.83S348.17,345.93,347.13,345.08Z" transform="translate(1 1)"/><path class="cls-70" d="M338.69,343.44s10.51-5,19.58.22a18.38,18.38,0,0,1-2.72,3.15s-6.11-4.19-13.94.05A20.21,20.21,0,0,1,338.69,343.44Z" transform="translate(1 1)"/><path class="cls-5" d="M339.93,339.48c1.34.3,2.5.53,3.77.71a32.83,32.83,0,0,0,7.61.28c.87-.08,1.74-.17,2.61-.3s1.64-.36,2.46-.45c0,0-.24,1-.27,1a2.38,2.38,0,0,1-.55.9,4.13,4.13,0,0,1-2.41.92l-2,.25a25.67,25.67,0,0,1-3.72.06,21.46,21.46,0,0,1-4-.33,6,6,0,0,1-2.42-1A3.92,3.92,0,0,1,339.93,339.48Z" transform="translate(1 1)"/><path class="cls-71" d="M341.61,339.84l.2,0a15.6,15.6,0,0,0,.32,2.3S341.63,341.77,341.61,339.84Z" transform="translate(1 1)"/><path class="cls-71" d="M343.18,340.11l.21,0a18,18,0,0,0,.32,2.48S343.21,342.19,343.18,340.11Z" transform="translate(1 1)"/><path class="cls-71" d="M345.07,340.34l.21,0a18,18,0,0,0,.32,2.48S345.1,342.42,345.07,340.34Z" transform="translate(1 1)"/><path class="cls-71" d="M346.74,340.52l.29,0s0,1.86,0,2.36h-.14A12.83,12.83,0,0,1,346.74,340.52Z" transform="translate(1 1)"/><path class="cls-71" d="M355,340l-.2,0a15.9,15.9,0,0,1-.33,2.3S355,341.9,355,340Z" transform="translate(1 1)"/><path class="cls-71" d="M353.44,340.23l-.23,0a13,13,0,0,1-.23,2.35S353.41,342.32,353.44,340.23Z" transform="translate(1 1)"/><path class="cls-71" d="M351.55,340.45l-.21,0a14,14,0,0,1-.25,2.38S351.52,342.53,351.55,340.45Z" transform="translate(1 1)"/><path class="cls-71" d="M349.87,340.56l-.28,0s0,1.87,0,2.36h.14A13.18,13.18,0,0,0,349.87,340.56Z" transform="translate(1 1)"/><path class="cls-71" d="M348.31,340.56l.29,0s0,1.87,0,2.36h-.14A12.83,12.83,0,0,1,348.31,340.56Z" transform="translate(1 1)"/><path class="cls-72" d="M349.28,435.88a23.41,23.41,0,0,1-23.41-23.41c0-12.94,10.48-27.09,23.41-27.09s23.42,14.15,23.42,27.09A23.41,23.41,0,0,1,349.28,435.88Z" transform="translate(1 1)"/><g class="cls-73"><path class="cls-5" d="M349.28,409.2c-8.64,0-15.65-4.94-15.65-11s7-11,15.65-11,15.66,4.93,15.66,11S357.93,409.2,349.28,409.2Z" transform="translate(1 1)"/></g><g class="cls-74"><path class="cls-58" d="M349.28,412.31c8.65,0,15.66,4.94,15.66,11s-7,11-15.66,11-15.65-4.93-15.65-11S340.64,412.31,349.28,412.31Z" transform="translate(1 1)"/></g><path class="cls-59" d="M340.62,397.15a1.11,1.11,0,0,1,1,1.49s-7.2,1.67-8.54,4.58c0,0-.74.75-.93-.47C332.14,402.75,333.42,398.41,340.62,397.15Z" transform="translate(1 1)"/><path class="cls-59" d="M356.16,397.71a1.12,1.12,0,0,0-.78,1.62s7.36.68,9.09,3.38c0,0,.83.65.85-.58C365.32,402.13,363.47,398,356.16,397.71Z" transform="translate(1 1)"/><path class="cls-60" d="M346.42,409c-1.44,5.33-3.1,4.27-6.14,3.84s-5.25-.18-4.85-5.37c.27-3.67,3.38-6.26,6.41-5.84A5.91,5.91,0,0,1,346.42,409Z" transform="translate(1 1)"/><path class="cls-75" d="M346.42,409c-1.5,5.7-2.95,4.16-5.83,3.76s-4.62.35-4.58-5.21A5.34,5.34,0,1,1,346.42,409Z" transform="translate(1 1)"/><path class="cls-63" d="M343.08,414.26c.3-.06-4.63-3.35-9-.87-.7.56,2.73-5.25,10.53-.46C344.62,412.92,343.37,414.49,343.08,414.26Z" transform="translate(1 1)"/><path class="cls-60" d="M351.7,409.13c1.75,5.24,3.34,4.08,6.35,3.49s5.23-.49,4.54-5.65c-.49-3.65-3.74-6.05-6.75-5.46A5.91,5.91,0,0,0,351.7,409.13Z" transform="translate(1 1)"/><path class="cls-76" d="M351.7,409.13c1.82,5.61,3.19,4,6,3.42s4.64.08,4.28-5.47a5.34,5.34,0,1,0-10.31,2.05Z" transform="translate(1 1)"/><path class="cls-63" d="M355.36,414.27c-.3,0,4.43-3.62,8.92-1.39.73.51-3-5.09-10.54.15C353.75,413,355.09,414.52,355.36,414.27Z" transform="translate(1 1)"/><path class="cls-66" d="M336.64,418a7.13,7.13,0,0,0,.2,1.45c2,5.43,6.82,10.35,12.28,10.33s10.27-4.9,12.29-10.33a7.13,7.13,0,0,0,.2-1.45C353.38,420.44,347.6,421.11,336.64,418Z" transform="translate(1 1)"/><path class="cls-77" d="M341.75,426.71s7.42-4.49,14.81-.06C356.56,426.65,349.66,433.82,341.75,426.71Z" transform="translate(1 1)"/><path class="cls-68" d="M355.25,427.65a.53.53,0,0,1-.35.23c-2.39.49-4.48,1.39-7,1.23a12.51,12.51,0,0,1-4.32-1,10,10,0,0,0,11.74-.48Z" transform="translate(1 1)"/><path class="cls-69" d="M347.62,424.81a12.19,12.19,0,0,1,3.43,0,7,7,0,0,0-1.71,4.07S348.72,425.71,347.62,424.81Z" transform="translate(1 1)"/><path class="cls-70" d="M338.66,423.08s11.16-5.33,20.79.22c0,0-2.07,2.9-2.89,3.35,0,0-6.48-4.45-14.81.06A21.91,21.91,0,0,1,338.66,423.08Z" transform="translate(1 1)"/><path class="cls-5" d="M340,418.87c1.43.32,2.66.56,4,.75a34.76,34.76,0,0,0,8.09.3c.92-.09,1.85-.19,2.77-.32s1.75-.38,2.62-.48c0,0-.26,1-.3,1.12a2.63,2.63,0,0,1-.58,1,4.44,4.44,0,0,1-2.56,1l-2.09.26a26.08,26.08,0,0,1-3.95.07,23.22,23.22,0,0,1-4.25-.35,6.55,6.55,0,0,1-2.57-1.06A4.15,4.15,0,0,1,340,418.87Z" transform="translate(1 1)"/><path class="cls-71" d="M341.75,419.24l.22.05a16.91,16.91,0,0,0,.34,2.44S341.78,421.3,341.75,419.24Z" transform="translate(1 1)"/><path class="cls-71" d="M343.42,419.54l.22,0a19.58,19.58,0,0,0,.34,2.63S343.45,421.75,343.42,419.54Z" transform="translate(1 1)"/><path class="cls-71" d="M345.43,419.78l.22.05a19.31,19.31,0,0,0,.34,2.62S345.46,422,345.43,419.78Z" transform="translate(1 1)"/><path class="cls-71" d="M347.21,420l.3,0s0,2,0,2.5h-.15A13.41,13.41,0,0,1,347.21,420Z" transform="translate(1 1)"/><path class="cls-71" d="M356,419.37l-.22.05a16.91,16.91,0,0,1-.34,2.44S356,421.43,356,419.37Z" transform="translate(1 1)"/><path class="cls-71" d="M354.32,419.67l-.25,0a13.42,13.42,0,0,1-.25,2.5S354.29,421.88,354.32,419.67Z" transform="translate(1 1)"/><path class="cls-71" d="M352.31,419.89l-.22,0a14.93,14.93,0,0,1-.26,2.53S352.28,422.1,352.31,419.89Z" transform="translate(1 1)"/><path class="cls-71" d="M350.53,420h-.3s0,2,0,2.51h.15A13.41,13.41,0,0,0,350.53,420Z" transform="translate(1 1)"/><path class="cls-71" d="M348.87,420h.31s0,2,0,2.51H349A14,14,0,0,1,348.87,420Z" transform="translate(1 1)"/><path class="cls-78" d="M342.38,416.61a1.31,1.31,0,0,0-1.21-1c-.76,0-.82,1-1.55.13-.16-.18-.27-.49-.5-.59a2.11,2.11,0,0,0-1.24.16c-.27.12-.31.32-.64.26s-.51-.48-.68-.58c-.12.48.31,1.08.57,1.46a2.32,2.32,0,0,0,1.54,1c.62.14,4.07.69,3.76-.81" transform="translate(1 1)"/><path class="cls-5" d="M340.06,416.41a1.39,1.39,0,0,1-.68-.63.76.76,0,0,0-.69-.34,2,2,0,0,0-.71.2,2.23,2.23,0,0,1-.78.11,1.28,1.28,0,0,0,.72.17c.28,0,.68-.11.94,0s.29.35.47.47a.88.88,0,0,0,.76.12" transform="translate(1 1)"/><path class="cls-78" d="M356.07,416a1.3,1.3,0,0,1,1.2-1c.76,0,.82,1,1.55.13.16-.18.27-.48.5-.59a2.11,2.11,0,0,1,1.24.17c.27.11.31.31.65.25s.5-.47.67-.58c.12.48-.31,1.09-.56,1.47a2.43,2.43,0,0,1-1.55,1.05c-.61.14-4.06.68-3.76-.81" transform="translate(1 1)"/><path class="cls-5" d="M358.38,415.82c.38-.16.44-.29.68-.62a.75.75,0,0,1,.69-.35,2.42,2.42,0,0,1,.71.2,2,2,0,0,0,.78.12,1.28,1.28,0,0,1-.72.17c-.28,0-.68-.12-.93,0s-.3.34-.48.47a.92.92,0,0,1-.76.12" transform="translate(1 1)"/><path class="cls-78" d="M367.29,411.09a1.3,1.3,0,0,1,1.5,1.28c0,.71-.71,1.67-1.52,1.32-.63-.27-1.22-.6-1.87-.85-.3-.11-.62-.22-.93-.3s-.73-.26-.9-.17C363.57,412.37,366.24,411,367.29,411.09Z" transform="translate(1 1)"/><path class="cls-5" d="M367.72,411.49a.71.71,0,0,1,.82.69c0,.39-.39.91-.83.72s-.67-.33-1-.46l-.51-.17c-.1,0-.4-.14-.49-.09A6.37,6.37,0,0,1,367.72,411.49Z" transform="translate(1 1)"/><path class="cls-78" d="M330.68,411.16a1.32,1.32,0,0,0-1.42,1.39c0,.71.84,1.62,1.62,1.21.61-.32,1.17-.69,1.8-1,.3-.14.6-.27.91-.38s.71-.3.89-.23C334.48,412.17,331.72,411,330.68,411.16Z" transform="translate(1 1)"/><path class="cls-5" d="M330.61,411.94a.7.7,0,0,0-.73.79c0,.39.5.86.91.61s.62-.41.95-.58a4.37,4.37,0,0,1,.49-.23c.09,0,.37-.19.47-.15A6.36,6.36,0,0,0,330.61,411.94Z" transform="translate(1 1)"/><path class="cls-78" d="M329.55,415.87a.78.78,0,0,0,0,1.18c.31.29,1,.32,1.19-.19s.18-.8.32-1.19a4.2,4.2,0,0,1,.22-.55c0-.1.15-.43.26-.48A7.29,7.29,0,0,0,329.55,415.87Z" transform="translate(1 1)"/><path class="cls-5" d="M329.91,416.28a.36.36,0,0,0,0,.54c.15.14.48.17.56-.06a4.81,4.81,0,0,1,.16-.54c0-.09.07-.17.11-.25s.08-.2.13-.22A3.37,3.37,0,0,0,329.91,416.28Z" transform="translate(1 1)"/><path class="cls-78" d="M333.32,414.56a.78.78,0,0,0,0,1.18c.32.29,1.05.31,1.2-.19s.18-.8.32-1.19a3.71,3.71,0,0,1,.22-.55c0-.1.15-.44.26-.48A7,7,0,0,0,333.32,414.56Z" transform="translate(1 1)"/><path class="cls-5" d="M333.78,415a.36.36,0,0,0,.07.54c.16.11.49.09.53-.15s.05-.37.09-.56a2,2,0,0,1,.07-.26s0-.21.1-.24A3.24,3.24,0,0,0,333.78,415Z" transform="translate(1 1)"/><path class="cls-78" d="M368.74,415.71a.78.78,0,0,1,.07,1.18c-.3.31-1,.38-1.2-.11s-.24-.78-.4-1.16a5.36,5.36,0,0,0-.26-.54c-.05-.09-.19-.42-.3-.46A7.1,7.1,0,0,1,368.74,415.71Z" transform="translate(1 1)"/><path class="cls-5" d="M368.44,416.27a.35.35,0,0,1-.06.54c-.16.11-.48.09-.53-.15s-.05-.36-.09-.55,0-.17-.07-.26-.05-.2-.1-.22A3.24,3.24,0,0,1,368.44,416.27Z" transform="translate(1 1)"/><path class="cls-78" d="M364.89,414.67a.78.78,0,0,1,.07,1.18c-.3.3-1,.38-1.2-.11s-.25-.78-.41-1.16a5.29,5.29,0,0,0-.25-.54c-.06-.09-.19-.42-.3-.46A7.22,7.22,0,0,1,364.89,414.67Z" transform="translate(1 1)"/><path class="cls-5" d="M364.59,415.2a.35.35,0,0,1,0,.53c-.14.13-.47.14-.54-.1s-.07-.36-.13-.54a2.6,2.6,0,0,0-.1-.25s-.06-.2-.11-.22A3.23,3.23,0,0,1,364.59,415.2Z" transform="translate(1 1)"/><rect class="cls-19" x="317" y="299.86" width="69.17" height="62.77"/><rect class="cls-19" x="317.23" y="379.91" width="69.17" height="62.77"/><text class="cls-35" transform="translate(405.25 319.31)">Haaaa! this <tspan class="cls-79" x="52.25" y="0">w</tspan><tspan x="60.23" y="0">ebsi</tspan><tspan class="cls-80" x="78.93" y="0">t</tspan><tspan x="82.51" y="0">e does</tspan><tspan class="cls-37" x="112.46" y="0">n</tspan><tspan class="cls-81" x="118.2" y="0">’</tspan><tspan x="120.36" y="0">t h</tspan><tspan class="cls-82" x="132.44" y="0">a</tspan><tspan class="cls-83" x="137.65" y="0">v</tspan><tspan x="142.83" y="0">e a </tspan><tspan x="0" y="13.2">log</tspan><tspan class="cls-51" x="14.78" y="13.2">o</tspan><tspan x="20.56" y="13.2">. i guess one of the unlimi</tspan><tspan class="cls-84" x="137.08" y="13.2">t</tspan><tspan x="140.65" y="13.2">ed </tspan><tspan x="0" y="26.4">possibilities is loosing a name!</tspan></text><text class="cls-35" transform="translate(397.75 407.89)"><tspan class="cls-85">I</tspan><tspan x="2.8" y="0">ts like not h</tspan><tspan class="cls-86" x="55.53" y="0">a</tspan><tspan x="60.74" y="0">ving a fa</tspan><tspan class="cls-80" x="99.34" y="0">c</tspan><tspan x="104.2" y="0">e! </tspan><tspan class="cls-87" x="0" y="13.2">L</tspan><tspan x="4.76" y="13.2">OL!</tspan></text></svg>