<?xml version="1.0" encoding="utf-8"?>
<!-- Generator: Adobe Illustrator 25.0.0, SVG Export Plug-In . SVG Version: 6.00 Build 0)  -->
<svg version="1.1" id="Layer_1" xmlns="http://www.w3.org/2000/svg" xmlns:xlink="http://www.w3.org/1999/xlink" x="0px" y="0px"
	 viewBox="0 0 45 45" style="enable-background:new 0 0 45 45;" xml:space="preserve">
<style type="text/css">
	.st0{fill:#FFFFFF;}
</style>
<path class="st0" d="M15,4.5C9.2,4.5,4.5,9.2,4.5,15v15c0,5.8,4.7,10.5,10.5,10.5h15c5.8,0,10.5-4.7,10.5-10.5V15
	c0-5.8-4.7-10.5-10.5-10.5H15z M33,10.5c0.8,0,1.5,0.7,1.5,1.5s-0.7,1.5-1.5,1.5s-1.5-0.7-1.5-1.5S32.2,10.5,33,10.5z M22.5,13.5
	c5,0,9,4,9,9s-4,9-9,9s-9-4-9-9S17.5,13.5,22.5,13.5z M22.5,16.5c-3.3,0-6,2.7-6,6s2.7,6,6,6s6-2.7,6-6S25.8,16.5,22.5,16.5z"/>
</svg>
