<?xml version="1.0" encoding="utf-8"?>
<!-- Generator: Adobe Illustrator 25.0.0, SVG Export Plug-In . SVG Version: 6.00 Build 0)  -->
<svg version="1.1" id="Layer_1" xmlns="http://www.w3.org/2000/svg" xmlns:xlink="http://www.w3.org/1999/xlink" x="0px" y="0px"
	 viewBox="0 0 48 48" style="enable-background:new 0 0 48 48;" xml:space="preserve">
<style type="text/css">
	.st0{fill:#FFFFFF;}
</style>
<path class="st0" d="M38,6H10c-2.2,0-4,1.8-4,4v28c0,2.2,1.8,4,4,4h28c2.2,0,4-1.8,4-4V10C42,7.8,40.2,6,38,6z M18,31.4
	c0,1.4-1.2,2.6-2.6,2.6s-2.6-1.2-2.6-2.6v-9C13,21.2,14,20,15.4,20s2.6,1.2,2.6,2.6V31.4z M15.4,17.4c-1.6,0-2.6-1-2.6-2.4
	s1-2.4,2.8-2.4c1.6,0,2.6,1,2.6,2.4C18.2,16.4,17.2,17.4,15.4,17.4z M36,31.6c0,1.4-1,2.4-2.4,2.4s-2.4-1-2.4-2.4v-5.2
	c0-2.2-1.4-2.4-1.8-2.4s-2.2,0-2.2,2.4v5.2c0,1.4-1,2.4-2.4,2.4h-0.2c-1.4,0-2.4-1-2.4-2.4v-9c0-1.4,1.2-2.6,2.6-2.6
	s2.6,1.2,2.6,2.6c0,0,0.6-2.6,4.4-2.6c2.4,0,4.4,2,4.4,6.4v5.2H36z"/>
</svg>
