<?xml version="1.0" encoding="utf-8"?>
<!-- Generator: Adobe Illustrator 25.0.0, SVG Export Plug-In . SVG Version: 6.00 Build 0)  -->
<svg version="1.1" id="Layer_1" xmlns="http://www.w3.org/2000/svg" xmlns:xlink="http://www.w3.org/1999/xlink" x="0px" y="0px"
	 viewBox="0 0 1366 324" style="enable-background:new 0 0 1366 324;" xml:space="preserve">
<style type="text/css">
	.st0{fill:#FFD9D9;}
	.st1{opacity:0.3;fill:#FFFFFF;}
</style>
<g id="Layer_2_1_">
	<g id="Layer_1-2">
		<path class="st0" d="M1366,247V0H0v118c19.6,13.8,50.5,31.2,90,35c59.4,5.7,84-24.5,140-33c79-12,89.3,39,197,55
			c111.4,16.6,129.3-33.8,233-12c94.3,19.8,94.7,64.7,161,63c90.6-2.4,103.6-86.6,215-102c16.9-2.4,102.4-14.2,156,35
			c36.2,33.3,29.2,68.2,70,110c33.3,34.1,74.4,48.3,104,55V247z"/>
	</g>
</g>
<path class="st1" d="M108.8,139.7c35.4-2.1,70.1-15.5,97.8-37.8c-22.7,18.4-70.6,21.5-98.4,22c-33.5,0.7-62.4-11.3-94.4-15.2
	C24.7,138.3,83.4,141.2,108.8,139.7z"/>
<path class="st1" d="M839.4,206.6c33.6-6.8,59.9-33,79.6-61c-39.2,30.9-93.1,42.3-141.4,29.8c-20.3-5.3-39.4,10.1-16.4,22.5
	C781.4,208.7,817.5,211,839.4,206.6z"/>
<path class="st1" d="M1352.2,309.1c-25.6-15.2-51.4-30.6-73.1-51c-21.4-20.2-38.4-45.7-43.6-75.1c2.4,25.1,7.6,55.4,24.5,75
	C1283,285,1317.4,303.4,1352.2,309.1z"/>
<path class="st1" d="M433.9,156.3c29.9,4.5,61.9,1.6,87.8-14c-37.3,8.4-47.8,9.4-67,8.4c-27.6-1.5-70-12-97.1-17.1
	C382.8,142.4,407.3,152.3,433.9,156.3z"/>
</svg>
