<svg id="Layer_1" data-name="Layer 1" xmlns="http://www.w3.org/2000/svg" xmlns:xlink="http://www.w3.org/1999/xlink" viewBox="0 0 1247.98 304.26"><defs><style>.cls-1,.cls-2{isolation:isolate;}.cls-2{font-size:20px;font-family:ArialMT, Arial;}.cls-3{letter-spacing:-0.06em;}.cls-4{fill:none;stroke:#000;stroke-linecap:round;stroke-miterlimit:10;}.cls-5{letter-spacing:-0.02em;}.cls-6{letter-spacing:-0.11em;}</style></defs><image class="cls-1" width="642" height="630" transform="translate(0 171.96) scale(0.21)" xlink:href="analyse.png"/><text class="cls-2" transform="translate(22.52 75.62)">I<tspan class="cls-3" x="5.56" y="0"> </tspan><tspan x="10.01" y="0">Analyse</tspan></text><line class="cls-4" x1="67.05" y1="102.12" x2="67.05" y2="158.12"/><circle cx="67.05" cy="95.12" r="2.5"/><circle cx="67.05" cy="165.12" r="2.5"/><image class="cls-1" width="642" height="630" transform="translate(259.38 171.96) scale(0.21)" xlink:href="design.png"/><text class="cls-2" transform="translate(288.96 75.62)">I Design</text><line class="cls-4" x1="328.2" y1="102.12" x2="328.2" y2="158.12"/><circle cx="328.2" cy="95.12" r="2.5"/><circle cx="328.2" cy="165.12" r="2.5"/><image class="cls-1" width="642" height="630" transform="translate(518.77 171.96) scale(0.21)" xlink:href="responsive.png"/><text class="cls-2" transform="translate(531.03 75.62)">Responsive</text><line class="cls-4" x1="587.58" y1="102.12" x2="587.58" y2="158.12"/><circle cx="587.58" cy="95.12" r="2.5"/><circle cx="587.58" cy="165.12" r="2.5"/><image class="cls-1" width="642" height="630" transform="translate(782.92 171.96) scale(0.21)" xlink:href="test.png"/><text class="cls-2" transform="translate(826.13 75.62)">I<tspan class="cls-5" x="5.56" y="0"> </tspan><tspan class="cls-6" x="10.75" y="0">T</tspan><tspan x="20.75" y="0">est</tspan></text><line class="cls-4" x1="851.73" y1="102.12" x2="851.73" y2="158.12"/><circle cx="851.73" cy="95.12" r="2.5"/><circle cx="851.73" cy="165.12" r="2.5"/><image class="cls-1" width="642" height="630" transform="translate(129.69 49.13) scale(0.21)" xlink:href="plan.png"/><text class="cls-2" transform="translate(171.97 296.62)">I Plan</text><line class="cls-4" x1="198.5" y1="211.12" x2="198.5" y2="267.12"/><circle cx="255.58" cy="399.5" r="2.5" transform="translate(-236.78 392.41) rotate(-80.78)"/><circle cx="255.58" cy="469.5" r="2.5" transform="translate(-305.88 451.19) rotate(-80.78)"/><image class="cls-1" width="642" height="822" transform="translate(389.07 14.3) scale(0.21)" xlink:href="develop.png"/><text class="cls-2" transform="translate(412.36 296.62)">I Develop</text><line class="cls-4" x1="456.26" y1="211.12" x2="456.26" y2="267.12"/><circle cx="456.26" cy="204.12" r="2.5"/><circle cx="456.26" cy="274.12" r="2.5"/><image class="cls-1" width="642" height="630" transform="translate(650.84 50.03) scale(0.21)" xlink:href="cross_browser.png"/><text class="cls-2" transform="translate(648.46 296.62)">Cross browser</text><line class="cls-4" x1="719.66" y1="211.12" x2="719.66" y2="267.12"/><circle cx="719.66" cy="204.12" r="2.5"/><circle cx="719.66" cy="274.12" r="2.5"/><image class="cls-1" width="1597" height="880" transform="translate(912.61) scale(0.21)" xlink:href="launch.png"/><text class="cls-2" transform="translate(1016.86 296.62)">I’m Launched</text><line class="cls-4" x1="1083.79" y1="211.12" x2="1083.79" y2="267.12"/><circle cx="1083.79" cy="204.12" r="2.5"/><circle cx="1083.79" cy="274.12" r="2.5"/></svg>