<svg xmlns="http://www.w3.org/2000/svg" xmlns:xlink="http://www.w3.org/1999/xlink" viewBox="0 0 84.15 113.15"><defs><style>.cls-1,.cls-2,.cls-9{fill:#ff7300;}.cls-2{opacity:0.44;}.cls-11,.cls-3{fill:#fff;}.cls-4{opacity:0.15;}.cls-5{fill:#223e97;}.cls-6{fill:#3361aa;}.cls-7{fill:url(#radial-gradient);}.cls-8{fill:url(#radial-gradient-2);}.cls-9{opacity:0.3;}.cls-10{fill:none;}.cls-11{stroke:#000;stroke-miterlimit:10;}</style><radialGradient id="radial-gradient" cx="-16.33" cy="51.84" r="4.44" gradientTransform="translate(47.84 21.19) scale(1.1 0.59)" gradientUnits="userSpaceOnUse"><stop offset="0" stop-color="#ff7300" stop-opacity="0.6"/><stop offset="0.04" stop-color="#ff7300" stop-opacity="0.57"/><stop offset="0.27" stop-color="#ff7300" stop-opacity="0.37"/><stop offset="0.5" stop-color="#ff7300" stop-opacity="0.21"/><stop offset="0.7" stop-color="#ff7300" stop-opacity="0.09"/><stop offset="0.87" stop-color="#ff7300" stop-opacity="0.02"/><stop offset="1" stop-color="#ff7300" stop-opacity="0"/></radialGradient><radialGradient id="radial-gradient-2" cx="13.23" cy="50.77" r="4.44" gradientTransform="translate(47.84 20.75) scale(1.1 0.59)" xlink:href="#radial-gradient"/></defs><g id="Layer_2" data-name="Layer 2"><g id="Layer_2-2" data-name="Layer 2"><g id="Layer_3" data-name="Layer 3"><path d="M0,78.13a1.81,1.81,0,0,1,3.09-1.29l0,0,0,0a14.13,14.13,0,0,1,3.66,6.15c.16.58.35,1.19.56,1.82,1.09,3.21,2.77,8.17,7,12.47,1.07,1.09,7.92,7.8,17.71,7.41a21.47,21.47,0,0,0,5.72-1l13.88,3.56a30.65,30.65,0,0,1-8.81,4.5c-14.59,4.62-27.29-3.83-28.13-4.41-9.45-6.51-12.38-16-13.31-19.22A36.9,36.9,0,0,1,0,78.13Z"/><path class="cls-1" d="M10.45,18a102.6,102.6,0,0,1,8-9.65,12.74,12.74,0,0,1,1.31-1.17A10.63,10.63,0,0,1,26.3,4.5a8.41,8.41,0,0,1,3.93.89,17.37,17.37,0,0,1,2.63,1.87C35,8.94,35.25,9.34,36.05,9.42a3.09,3.09,0,0,0,2.76-1.31,3.14,3.14,0,0,0,.42-2.39A3,3,0,0,1,36.89,7a2.45,2.45,0,0,1-1.31-.7A15.46,15.46,0,0,1,33,3.18,12.82,12.82,0,0,0,30.7.79c-2.22-1.57-5.62-.4-7.08.1C15.91,3.54,10.93,16.75,10.45,18Z"/><path class="cls-2" d="M14.91,17a20.63,20.63,0,0,1,7-9.33c2.18-1.55,3.49-1.73,4.26-1.74,3.44,0,5.79,3.1,6.19,3.66a10.12,10.12,0,0,0-6.52-1.5,10.68,10.68,0,0,0-4,1.55C18.37,11.66,17.73,13,14.91,17Z"/><path class="cls-2" d="M34.5,12.7a8.66,8.66,0,0,1,6.19,1.78,8.76,8.76,0,0,1,2.25,3.28c1.31,2.91.52,4.19,2,7.36.94,2.07,1.74,2.53,2,2.67,1.34.69,2.83.24,4.08-.14a11,11,0,0,0,4.36-2.57c-1,.65-3.62,2.12-6.33,1.31a6,6,0,0,1-.84-.33,4.27,4.27,0,0,1-1.69-1.73,15.33,15.33,0,0,1-1.36-4.55,10.08,10.08,0,0,0-4.78-6.7A8,8,0,0,0,34.5,12.7Z"/><path class="cls-3" d="M41.07,31.28q0,.91-.06,1.8v0c-.38,5.65-2.5,10.56-5.58,13.61h0a2.61,2.61,0,0,1-1-.08,14.37,14.37,0,0,0-9.08,1.2L25,48a13.48,13.48,0,0,0-1.38.81c-4.92-2.65-8.43-9.5-8.43-17.53a25.69,25.69,0,0,1,1.55-8.88,0,0,0,0,1,0,0,18.88,18.88,0,0,1,3-5.37,10.85,10.85,0,0,1,8.34-4.41C35.27,12.59,41.07,21,41.07,31.28Z"/><path class="cls-4" d="M40.79,39.68a15.84,15.84,0,0,1-2.31,4.47,6.56,6.56,0,0,1-2,2.21,3.45,3.45,0,0,1-1,.36h-.06a2.61,2.61,0,0,1-1-.08,14.37,14.37,0,0,0-9.08,1.2L25,48a1.63,1.63,0,0,1-1.49.11A4.84,4.84,0,0,1,20.93,46a20.42,20.42,0,0,1-2-3.67,16.11,16.11,0,0,0,1.38,1.48l0,0c.37.37.75.72,1.15,1.05a8.13,8.13,0,0,0,2.17,1.21c.86.23,1.17-.29,2-.5a23.22,23.22,0,0,1,7.11-.37c4.09-5.33,5.84-8.95,5.37-16.77a12,12,0,0,0-2.37-6.77,9.73,9.73,0,0,0-1.2-1.31,6.79,6.79,0,0,0-1.66-1.11A14,14,0,0,0,28.06,18a10.23,10.23,0,0,0-5.1.52,5.68,5.68,0,0,0-.55.28,8.51,8.51,0,0,0-3,3.19,19,19,0,0,0-1.21,2.54,36.37,36.37,0,0,0-1.49,4.68c-.22.88-.34,1.8-.48,2.71v0a19,19,0,0,1-.39,1.88c-.42-.46-.19-1.47-.18-2,0-.94.09-1.88.16-2.81.14-1.79.36-3.58.66-5.35q.11-.63.24-1.26a0,0,0,0,1,0,0,10.66,10.66,0,0,1,1-3,8.82,8.82,0,0,1,2-2.39,16.85,16.85,0,0,1,2.86-2,11.13,11.13,0,0,1,3.94-1.5c3.21-.42,6.3,1.54,8.45,4,3.76,4.23,5.51,9.89,6,15.58v0c.08,1,.12,1.92.13,2.87A13.17,13.17,0,0,1,40.79,39.68Z"/><path class="cls-5" d="M36,23.84c0,5.51-3.35,9.84-8.09,9.84s-8.6-4.46-8.6-10S22.6,14,27.34,14,36,18.34,36,23.84Z"/><path class="cls-6" d="M34.25,23.84c0,4.35-2.65,7.78-6.4,7.78s-6.79-3.53-6.79-7.88,2.6-7.68,6.35-7.68S34.25,19.49,34.25,23.84Z"/><path d="M31.53,23.84c0,2.56-1.55,4.57-3.76,4.57s-4-2.07-4-4.63,1.53-4.51,3.73-4.51A4.31,4.31,0,0,1,31.53,23.84Z"/><path class="cls-3" d="M25.59,26.93c0,.56-.32,1-.79,1a.93.93,0,0,1-.83-1c0-.56.32-1,.78-1A.93.93,0,0,1,25.59,26.93Z"/><path class="cls-3" d="M31.19,20.75c0,1.05-.62,1.89-1.49,1.89a1.78,1.78,0,0,1-1.58-1.92c0-1,.61-1.86,1.48-1.86A1.75,1.75,0,0,1,31.19,20.75Z"/><path class="cls-1" d="M42.28,31c-.63-11-7.85-19.63-14.07-19.63-7.71,0-13.93,6.72-13.93,19.63,0,8.18,3.76,15.13,8.89,18.09a4.08,4.08,0,0,1,.44-.28A13.48,13.48,0,0,1,25,48a14.15,14.15,0,0,1-4.67-4.2l0,0A21.7,21.7,0,0,1,16.24,32v0c0-.33,0-.68,0-1,0-6.6,2.63-11.92,5.86-14.74l0,0a9.07,9.07,0,0,1,3.6-2l.35-.07a4.93,4.93,0,0,1,.85-.1h.34a9.72,9.72,0,0,1,5.05,1.76l0,0a19.08,19.08,0,0,1,7.88,15.15c.27,8.14-1.8,13.13-5,15.72l.19.05h0q.71.15,1.32.33C40.38,43.51,42.66,37.66,42.28,31Z"/><path class="cls-2" d="M39.28,48a22.55,22.55,0,0,0-2.94-.47c-.53,0-1.09-.08-1.67-.08h-.45A25.22,25.22,0,0,0,29.1,48a14.48,14.48,0,0,0-2.26.68h0a17,17,0,0,0-1.73.75l-.59.31c-3.77,2-6,4.79-6.14,4.61s1.55-3,4.8-5.28a4.08,4.08,0,0,1,.44-.28A13.48,13.48,0,0,1,25,48l.33-.16a14.37,14.37,0,0,1,9.08-1.2,2.61,2.61,0,0,0,1,.08h.06q.71.15,1.32.33A20.54,20.54,0,0,1,39.28,48Z"/><path class="cls-2" d="M35.46,46.72h0a2.61,2.61,0,0,1-1-.08,14.37,14.37,0,0,0-9.08,1.2,13,13,0,0,1,2.33-.92,15.82,15.82,0,0,1,7.59-.26l.19.05Z"/><ellipse class="cls-7" cx="29.81" cy="51.84" rx="4.83" ry="2.53"/><path class="cls-1" d="M33.33,59.9a11,11,0,0,1,6.84-2.67c1.39,0,2.78.32,5.63,1.74a47.81,47.81,0,0,1,9.42,6.18C52.79,62.3,48.65,58,43.92,55.5A6.47,6.47,0,0,0,41,54.65C37,54.55,34.05,58.79,33.33,59.9Z"/><path class="cls-2" d="M53.53,67.37c-.16-.3,1.09-.9,2.06-2.56a7.75,7.75,0,0,0,1-3.31,4,4,0,0,1,.57,4.43C56.16,67.52,53.74,67.76,53.53,67.37Z"/><path class="cls-2" d="M38.54,60.54c.24-.24,1.05,1.12,2.93,1.54a7.65,7.65,0,0,0,3.59-.38,3.84,3.84,0,0,1-4.22,1.36C39,62.58,38.23,60.86,38.54,60.54Z"/><path class="cls-2" d="M43.36,30.18a12.51,12.51,0,0,0,6.56.61c.76-.14,2.66-.57,7.69-4.21A77.76,77.76,0,0,0,64,21.37c-.93,1.9-4.29,8.27-10.5,10.64a9.45,9.45,0,0,1-6.52.61A8.3,8.3,0,0,1,43.36,30.18Z"/><path class="cls-3" d="M77.53,34.45a19.88,19.88,0,0,1-3.1,7.78,14.65,14.65,0,0,1-3.56,4c-.3-.18-.62-.36-1-.53a15.81,15.81,0,0,0-6.14-1.72,15.64,15.64,0,0,0-6.51.92l-.91.36a13.28,13.28,0,0,1-2.79-4.3,15.53,15.53,0,0,1-1.82-5.86c-.21-1.31,2-.47,4.68-2A31.9,31.9,0,0,0,60,30.19c1.56-1.29,2.41-2,3.18-2.58a25.16,25.16,0,0,1,6.14-3.84c1.5-.6,5.7-2.26,7.6-.47.76.71.84,2,1,4.45A24.39,24.39,0,0,1,77.53,34.45Z"/><ellipse class="cls-8" cx="62.44" cy="50.77" rx="4.83" ry="2.53"/><path class="cls-9" d="M52.05,45a4.35,4.35,0,0,0,1.82,1.81c.69.3.88-.21,1.57-.52.35-.16.75-.38.84-.79a1.51,1.51,0,0,0-.35-1.08,23.85,23.85,0,0,1-2.8-6.33,9.62,9.62,0,0,0-.7-2.06c-.28-.51-1.33-1.77-1.73-.75a5.11,5.11,0,0,0,0,1.61c0,.55,0,1.1.07,1.65A19.91,19.91,0,0,0,52.05,45Z"/><path class="cls-9" d="M79.55,27.66A23.77,23.77,0,0,1,73,48.06a3.6,3.6,0,0,1-1.33-.44,1.22,1.22,0,0,1-.61-1.18,2.08,2.08,0,0,1,.87-1.08,15.91,15.91,0,0,0,3.59-5.1,28.65,28.65,0,0,0,2.1-4.66,18.09,18.09,0,0,0,.74-5.37c0-1.88-.41-3.71-.46-5.57C79.05,24.09,79.45,27.06,79.55,27.66Z"/><path class="cls-4" d="M52.72,39.11a23.81,23.81,0,0,1,9.37-3c3.09-.31,6.29-.68,9.32,0A30,30,0,0,1,76.59,38c.41-4,1.33-9,1-13.06a1.52,1.52,0,0,0-.27-.9,1.54,1.54,0,0,0-1.15-.35,25.22,25.22,0,0,0-3.89.14c-3.8.54-7.13,2.76-10.18,5.08-1.58,1.21-3.14,2.46-4.8,3.58A25.8,25.8,0,0,1,54.77,34c-.45.23-.9.45-1.36.65s-1.2.52-1.2,1a9.07,9.07,0,0,0,.32,1.6A14.78,14.78,0,0,1,52.72,39.11Z"/><path class="cls-1" d="M77.83,24.37a9.68,9.68,0,0,0-1.26-.26,26.41,26.41,0,0,1,.54,5.42c0,7.17-2.82,13.37-7.19,16.13a16.42,16.42,0,0,1,1.78,1.07c4.1-3.19,6.81-9.07,6.81-16.07A28.34,28.34,0,0,0,77.83,24.37ZM52.57,35.6a9.71,9.71,0,0,1-1.14-.18A19.57,19.57,0,0,0,56,45.4c.41-.19.84-.37,1.31-.54C54.93,43,53.26,40,52.57,35.6Z"/><path class="cls-2" d="M74.71,49.37a21.45,21.45,0,0,0-3.77-2.09c-.35-.16-.72-.31-1.11-.46s-.84-.29-1.29-.42a21.29,21.29,0,0,0-5.33-1,22,22,0,0,0-4.7.26c-.45.07-.88.16-1.29.26a5.43,5.43,0,0,0-.58.13,22,22,0,0,0-4.24,1.54A16,16,0,0,1,56,45.4l.4-.18.91-.36a15.64,15.64,0,0,1,6.51-.92,15.81,15.81,0,0,1,6.14,1.72c.33.17.65.35,1,.53s.57.36.83.54A16.15,16.15,0,0,1,74.71,49.37Z"/><ellipse class="cls-5" cx="64.25" cy="33.13" rx="6.81" ry="5.77" transform="translate(-4.6 55.14) rotate(-45)"/><ellipse class="cls-6" cx="64.25" cy="33.13" rx="5.29" ry="4.48" transform="translate(-4.6 55.14) rotate(-45)"/><ellipse cx="64.25" cy="33.13" rx="3.52" ry="2.98" transform="translate(-4.6 55.14) rotate(-45)"/><circle class="cls-3" cx="66.37" cy="31.01" r="1.39"/><circle class="cls-3" cx="61.59" cy="35.2" r="0.76"/><path class="cls-1" d="M84.15,28a15.29,15.29,0,0,0-6.32-3.63,9.68,9.68,0,0,0-1.26-.26,10.48,10.48,0,0,0-2-.11,13.63,13.63,0,0,0-6.32,2.13c-5,2.78-5.06,5.63-10.24,8.18A10.14,10.14,0,0,1,53,35.63l-.46,0a9.71,9.71,0,0,1-1.14-.18,10.23,10.23,0,0,1-4.22-2.17,9.67,9.67,0,0,0,4,1,6.32,6.32,0,0,0,1.13-.1l.33,0c1.65-.33,2.75-1.13,5.07-3.19,4.83-4.28,6.15-6.21,9.81-8.74,2.54-1.77,3.86-2.19,5.19-2.13a5.7,5.7,0,0,1,2.86,1c.44.26.94.59,1.53,1l.36.25A48.54,48.54,0,0,1,84.15,28Z"/><path class="cls-10" d="M51.81,45c.29.66,1.3,2.12,1.92,1.81s.94-.21,1.66-.52"/><path class="cls-11" d="M41,101.53c-1.4-2.49-3.26-4.68-4.87-7a12,12,0,0,1-1.69-2.72c-.6-1.65-.32-2.77-.28-5A32.77,32.77,0,0,0,33.72,81c-.52-3.5-.78-5.25-1.88-6.47a15.63,15.63,0,0,0-4.59-3.28,3.49,3.49,0,0,1-2-1.69,2.14,2.14,0,0,1,0-1.59c.08-.17.4-.76,2-1.22a9.1,9.1,0,0,1,4.22-.19,7.48,7.48,0,0,1,3.47,1.5,10.11,10.11,0,0,1,2.62,4,7.74,7.74,0,0,0,1.91,2.63c1.14,1.13,2.38,2,3.3,2a15.76,15.76,0,0,0,4.82-1.37,33.38,33.38,0,0,0,5.15-2.38,36.4,36.4,0,0,0,5.53-3.75,14.59,14.59,0,0,0,3.39-3.56,7.44,7.44,0,0,1,2-2.15,5.84,5.84,0,0,1,1.88-.75,9.3,9.3,0,0,1,3.37-.19,3.73,3.73,0,0,1,2.25.65A2.63,2.63,0,0,1,72,65.43c-.09.66-.43.89-1.31,2-1.17,1.43-.84,1.34-2.44,3.38-.58.73-1.08,1.34-1.69,2.06s-.79.94-1.12,1.31-.56.64-.85.94c-.6.64-.76.74-.75.94,0,.46,1.1.58,1.38,1.75S65,79.31,65,80c0,.86.78.8.92,2,.19,1.6-.45,1.4-.36,3,0,.83.65,1.18,1,2.17a2.91,2.91,0,0,1,0,1.41,8.21,8.21,0,0,1-1.31,3.18,11.63,11.63,0,0,1-2,2.63c-.75.72-1,.71-2.81,2.16a20.61,20.61,0,0,0-1.6,1.31c-1.41,1.6-.9,3-2,4.31-.65.82-1.53,1.08-3.28,1.59-.78.24-1.5.37-8.15.19a5.19,5.19,0,0,1-3.19-.84A4.54,4.54,0,0,1,41,101.53Z"/><path class="cls-11" d="M39.53,100.37c-.53-.05-1.34,1.38-1.37,2.81a5.32,5.32,0,0,0,1.5,3.57c2.91,3.27,8.25,2.76,9.75,2.62,1.07-.1,6.28-.6,8.31-3.81a5.7,5.7,0,0,0,1-3.38,5.18,5.18,0,0,0-.5-1.93,5.87,5.87,0,0,1-1.63,2.31c-.81.69-1.7,1-6.06,1.44a25.24,25.24,0,0,1-6.87,0,4.48,4.48,0,0,1-2.75-1.13C39.87,101.8,40,100.42,39.53,100.37Z"/><path class="cls-4" d="M68.29,64.1a1.76,1.76,0,0,1,1,.92c.22.63-.24,1.27-.67,1.78l-5.58,6.67c-.76.9-1.56,2.16-.93,3.17.3.49.89.77,1.16,1.28a3.34,3.34,0,0,1,0,2c-.11.82,1.16,1.53,1.22,2.35.13,1.71-.84,2.18-.7,3.9a5.53,5.53,0,0,1,.43,1.37,2.34,2.34,0,0,1-.19,1.74c-1.08,2-2.9,3.25-4.38,5.08a18.53,18.53,0,0,0-3.55,8.22c.05-.49.81-.8,1.94-3.44a5.11,5.11,0,0,1,2.31-2.48A12.64,12.64,0,0,0,64.19,93a9.34,9.34,0,0,0,2-3.66,9.17,9.17,0,0,0-.06-3.09l-.91-6.77a6.66,6.66,0,0,0-.71-2.56,2.41,2.41,0,0,1-.43-.9,1.81,1.81,0,0,1,.7-1.35A61.89,61.89,0,0,0,72,65.55a3.36,3.36,0,0,0-3-2.86,5.69,5.69,0,0,0-3,.35C66.09,63.67,67.73,63.85,68.29,64.1Z"/><path class="cls-4" d="M30.88,68.86a16.91,16.91,0,0,1,3.62,4.19,9.81,9.81,0,0,0,2.1,2.56c1.51,1.12,3.54,1.15,5.42,1.13a6.53,6.53,0,0,1-4.34-3.21c-.5-.9-.77-1.91-1.32-2.78a8.89,8.89,0,0,0-1.64-1.83A10.49,10.49,0,0,0,33,67.57a11.38,11.38,0,0,0-5.69-1.13c-.28,0-1.45,0-1.35.43s1.34.33,1.63.39A8.35,8.35,0,0,1,30.88,68.86Z"/></g></g></g></svg>