<?xml version="1.0" encoding="utf-8"?>
<!-- Generator: Adobe Illustrator 25.0.0, SVG Export Plug-In . SVG Version: 6.00 Build 0)  -->
<svg version="1.1" id="Layer_1" xmlns="http://www.w3.org/2000/svg" xmlns:xlink="http://www.w3.org/1999/xlink" x="0px" y="0px"
	 viewBox="0 0 1366 324" style="enable-background:new 0 0 1366 324;" xml:space="preserve">
<style type="text/css">
	.st0{fill:#FFFF00;}
</style>
<g id="Layer_2_1_">
	<g id="Layer_1-2">
		<path class="st0" d="M0,77v247h1366V206c-19.6-13.8-50.5-31.2-90-35c-59.4-5.7-84,24.5-140,33c-79,12-89.3-39-197-55
			c-111.4-16.6-129.3,33.8-233,12c-94.3-19.8-94.7-64.7-161-63c-90.6,2.4-103.6,86.6-215,102c-16.9,2.4-102.4,14.2-156-35
			c-36.2-33.3-29.2-68.2-70-110C70.7,20.9,29.6,6.7,0,0V77z"/>
	</g>
</g>
</svg>
