<?xml version="1.0" encoding="utf-8"?>
<!-- Generator: Adobe Illustrator 25.0.0, SVG Export Plug-In . SVG Version: 6.00 Build 0)  -->
<svg version="1.1" id="Layer_1" xmlns="http://www.w3.org/2000/svg" xmlns:xlink="http://www.w3.org/1999/xlink" x="0px" y="0px"
	 viewBox="0 0 1366 324" style="enable-background:new 0 0 1366 324;" xml:space="preserve">
<style type="text/css">
	.st0{fill:#FFFF00;}
	.st1{opacity:5.000000e-02;fill:#FFFFFF;}
</style>
<g id="Layer_2_1_">
	<g id="Layer_1-2">
		<path class="st0" d="M0,77v247h1366V206c-19.6-13.8-50.5-31.2-90-35c-59.4-5.7-84,24.5-140,33c-79,12-89.3-39-197-55
			c-111.4-16.6-129.3,33.8-233,12c-94.3-19.8-94.7-64.7-161-63c-90.6,2.4-103.6,86.6-215,102c-16.9,2.4-102.4,14.2-156-35
			c-36.2-33.3-29.2-68.2-70-110C70.7,20.9,29.6,6.7,0,0V77z"/>
	</g>
</g>
<path class="st1" d="M411.5,155c2.7-1.7,5.5-3.6,6.8-6.5c2.6-5.9-2.7-12.8-8.9-14.3c-6.2-1.5-12.7,0.6-18.7,2.8
	c-33.3,12-66.3,25.2-101.1,31.8c-39.3,7.5-71.3,1.3-108.6-9.7C243,209,348.7,193.9,411.5,155z"/>
<path class="st1" d="M809.7,146.5c8.3-3.2,17.8-9.7,16.2-18.4c-1.9-10.1-15.8-11.3-26-9.9c-31.7,4.3-63.3,9.6-95.3,9.7
	c-32,0.1-64.6-5.2-92.4-21C675.2,142.7,734.7,175.6,809.7,146.5z"/>
<path class="st1" d="M1092.9,191c29.2,7.1,61.9,4.7,86.5-12.3c5.8-4,11.7-10.5,9.7-17.2c-2.5-8.3-16.9,8.1-42.1,14.6
	c-5.5,1.4-4.7,2.9-28.9,3.4c-25.9,0.6-46.1-5.1-89.9-19.5C1040.3,175.8,1073.4,186.3,1092.9,191z"/>
</svg>
