<?xml version="1.0" encoding="utf-8"?>
<!-- Generator: Adobe Illustrator 25.0.0, SVG Export Plug-In . SVG Version: 6.00 Build 0)  -->
<svg version="1.1" id="Layer_1" xmlns="http://www.w3.org/2000/svg" xmlns:xlink="http://www.w3.org/1999/xlink" x="0px" y="0px"
	 viewBox="0 0 1366 324" style="enable-background:new 0 0 1366 324;" xml:space="preserve">
<style type="text/css">
	.st0{fill:#FFFFFF;}
	.st1{opacity:0.3;fill:#FFFFFF;}
</style>
<g id="Layer_2_1_">
	<g id="Layer_1-2">
		<path class="st0" d="M1366,0c-29.6,6.7-70.7,20.9-104,55c-40.8,41.8-33.8,76.7-70,110c-53.6,49.2-139.1,37.4-156,35
			c-111.4-15.4-124.4-99.6-215-102c-66.3-1.7-66.7,43.2-161,63c-103.7,21.8-121.6-28.6-233-12c-107.7,16-118,67-197,55
			c-56-8.5-80.6-38.7-140-33c-39.5,3.8-70.4,21.2-90,35v118h1366V0z"/>
	</g>
</g>
<path class="st1" d="M265.7,198.9c19.1-2.5,37.3-10.2,53.1-21.1c-26.9,14.4-59.5,15.3-88.5,6c-4.5-1.4-130.3-31.8-10.6,10.3
	C234.3,199.3,250.5,200.9,265.7,198.9z"/>
<path class="st1" d="M725.2,122.2c-42.4,13.2-87.2,18.5-131.5,15.5c-9-0.6-44.4-0.5-21.5,11.6c14,7.4,36.2,5.8,51.6,5
	c18.3-0.9,36.4-4.2,53.8-9.8C694.2,139.2,709,127.2,725.2,122.2z"/>
<path class="st1" d="M1149.9,176.9c9.4-2.7,7.6-16.6-2.1-16.8c-0.1,0-0.2,0-0.2,0c-8-0.1-15.7,2.8-23.3,5.2
	c-24.6,7.9-50.4,12-76.3,12.4c-12.9,0.2-25.9-0.6-38.7-2.3c-8.8-1.2-29.3-9.4-36.7-5.5c26.9,15,66.2,18,96.5,18.2
	C1096.4,188.2,1123.7,184.5,1149.9,176.9z"/>
</svg>
