<?xml version="1.0" encoding="utf-8"?>
<!-- Generator: Adobe Illustrator 25.0.0, SVG Export Plug-In . SVG Version: 6.00 Build 0)  -->
<svg version="1.1" id="Layer_1" xmlns="http://www.w3.org/2000/svg" xmlns:xlink="http://www.w3.org/1999/xlink" x="0px" y="0px"
	 viewBox="0 0 1366 324" style="enable-background:new 0 0 1366 324;" xml:space="preserve">
<style type="text/css">
	.st0{fill:#FFD9D9;}
	.st1{opacity:0.3;fill:#FFFFFF;}
	.st2{opacity:0.3;fill:#FFD9D9;}
</style>
<g id="Layer_2_1_">
	<g id="Layer_1-2">
		<path class="st0" d="M1366,0c-29.6,6.7-70.7,20.9-104,55c-40.8,41.8-33.8,76.7-70,110c-53.6,49.2-139.1,37.4-156,35
			c-111.4-15.4-124.4-99.6-215-102c-66.3-1.7-66.7,43.2-161,63c-103.7,21.8-121.6-28.6-233-12c-107.7,16-118,67-197,55
			c-56-8.5-80.6-38.7-140-33c-39.5,3.8-70.4,21.2-90,35v118h1366V0z"/>
	</g>
</g>
<path class="st1" d="M549.8,145.2c0.1-1.9,0.2-3.8,0.3-5.8c-30.8-7.9-62-15.8-93.8-15.6c-22.3,0.1-56.3,3.8-72.4,20.6
	c12.4,10,59.6-6.8,76.4-7.7C490.3,135.1,520.6,137.9,549.8,145.2z"/>
<path class="st2" d="M1116,193.3c-39.3,8.5-79.4,0.2-114.7-18.1c31.7,3.2,63.8,6.4,95.7-0.1c31.9-6.5,64.1-24,84.6-54.8
	c4.2-6.3,7.9-13.1,13.2-18.1c5.3-5,12.7-7.7,18.4-4.2c20.4,12.6-21,52.8-29.3,60.3C1163.7,176.1,1140.1,188,1116,193.3z"/>
<path class="st2" d="M553.9,147.9c28.5,5.9,58.1,0.1,86-8.5c21.5-6.6,71.3-34.2,93.3-25.5c17.5,6.9-4.6,13.7-14.3,17.5
	C665,152.6,610.6,159.6,553.9,147.9z"/>
<path class="st2" d="M179.9,180.8c26,5.9,52.8,4.1,78.8-0.6c17.4-3.2,37.8-12.9,55.1-12.1c-10.2,11.9-32.3,18.9-47.1,23.1
	c-14.1,4-28.8,5.7-43.5,4.5C206.4,194.3,194.9,184.2,179.9,180.8z"/>
</svg>
