<svg id="Layer_1" data-name="Layer 1" xmlns="http://www.w3.org/2000/svg" xmlns:xlink="http://www.w3.org/1999/xlink" viewBox="0 0 1366 768"><defs><style>.cls-1{font-size:20px;font-family:Poppins-Regular, Poppins;}.cls-2{fill:none;stroke:#000;stroke-linecap:round;stroke-miterlimit:10;}</style></defs><image width="642" height="630" transform="translate(57.08 367.34) scale(0.21 0.21)" xlink:href="C:%5CUsers%5Ckhomotso.m%5CDownloads%5Cimg%5Canalyse.png"/><text class="cls-1" transform="translate(79.6 271)">I Analyse</text><line class="cls-2" x1="124.13" y1="297.5" x2="124.13" y2="353.5"/><circle cx="124.13" cy="290.5" r="2.5"/><circle cx="124.13" cy="360.5" r="2.5"/><image width="642" height="630" transform="translate(316.46 367.34) scale(0.21 0.21)" xlink:href="C:%5CUsers%5Ckhomotso.m%5CDownloads%5Cimg%5Cdesign.png"/><text class="cls-1" transform="translate(346.04 271)">I Design</text><line class="cls-2" x1="385.28" y1="297.5" x2="385.28" y2="353.5"/><circle cx="385.28" cy="290.5" r="2.5"/><circle cx="385.28" cy="360.5" r="2.5"/><image width="642" height="630" transform="translate(575.85 367.34) scale(0.21 0.21)" xlink:href="C:%5CUsers%5Ckhomotso.m%5CDownloads%5Cimg%5Cresponsive.png"/><text class="cls-1" transform="translate(588.11 271)">Responsive</text><line class="cls-2" x1="644.66" y1="297.5" x2="644.66" y2="353.5"/><circle cx="644.66" cy="290.5" r="2.5"/><circle cx="644.66" cy="360.5" r="2.5"/><image width="642" height="630" transform="translate(840 367.34) scale(0.21 0.21)" xlink:href="C:%5CUsers%5Ckhomotso.m%5CDownloads%5Cimg%5Ctest.png"/><text class="cls-1" transform="translate(883.21 271)">I Test</text><line class="cls-2" x1="908.81" y1="297.5" x2="908.81" y2="353.5"/><circle cx="908.81" cy="290.5" r="2.5"/><circle cx="908.81" cy="360.5" r="2.5"/><image width="642" height="630" transform="translate(186.77 244.51) scale(0.21 0.21)" xlink:href="C:%5CUsers%5Ckhomotso.m%5CDownloads%5Cimg%5Cplan.png"/><text class="cls-1" transform="translate(229.05 492)">I Plan</text><line class="cls-2" x1="255.58" y1="406.5" x2="255.58" y2="462.5"/><circle cx="255.58" cy="399.5" r="2.5"/><circle cx="255.58" cy="469.5" r="2.5"/><image width="642" height="822" transform="translate(446.15 209.68) scale(0.21 0.21)" xlink:href="C:%5CUsers%5Ckhomotso.m%5CDownloads%5Cimg%5Cdevelop.png"/><text class="cls-1" transform="translate(469.44 492)">I Develop</text><line class="cls-2" x1="513.34" y1="406.5" x2="513.34" y2="462.5"/><circle cx="513.34" cy="399.5" r="2.5"/><circle cx="513.34" cy="469.5" r="2.5"/><image width="642" height="630" transform="translate(707.92 245.41) scale(0.21 0.21)" xlink:href="C:%5CUsers%5Ckhomotso.m%5CDownloads%5Cimg%5Ccross_browser.png"/><text class="cls-1" transform="translate(705.54 492)">Cross browser</text><line class="cls-2" x1="776.74" y1="406.5" x2="776.74" y2="462.5"/><circle cx="776.74" cy="399.5" r="2.5"/><circle cx="776.74" cy="469.5" r="2.5"/><image width="1597" height="880" transform="translate(969.69 195.38) scale(0.21 0.21)" xlink:href="C:%5CUsers%5Ckhomotso.m%5CDownloads%5Cimg%5Claunch.png"/><text class="cls-1" transform="translate(1073.94 492)">I’m Launched</text><line class="cls-2" x1="1140.87" y1="406.5" x2="1140.87" y2="462.5"/><circle cx="1140.87" cy="399.5" r="2.5"/><circle cx="1140.87" cy="469.5" r="2.5"/></svg>