<svg xmlns="http://www.w3.org/2000/svg" xmlns:xlink="http://www.w3.org/1999/xlink" viewBox="0 0 241.63 81.32"><defs><style>.cls-1,.cls-5{fill:#ff7300;}.cls-1{opacity:0.44;}.cls-10,.cls-2,.cls-9{fill:#fff;}.cls-3{fill:#223e97;}.cls-4{fill:#3361aa;}.cls-6{fill:url(#radial-gradient);}.cls-7{fill:url(#radial-gradient-2);}.cls-8{opacity:0.17;}.cls-9{stroke:#000;stroke-miterlimit:10;stroke-width:1.08px;}.cls-10{opacity:0.2;}</style><radialGradient id="radial-gradient" cx="55.06" cy="49.14" r="4.44" gradientTransform="translate(39.56 20.08) scale(1.1 0.59)" gradientUnits="userSpaceOnUse"><stop offset="0" stop-color="#ff7300" stop-opacity="0.6"/><stop offset="0.04" stop-color="#ff7300" stop-opacity="0.57"/><stop offset="0.27" stop-color="#ff7300" stop-opacity="0.37"/><stop offset="0.5" stop-color="#ff7300" stop-opacity="0.21"/><stop offset="0.7" stop-color="#ff7300" stop-opacity="0.09"/><stop offset="0.87" stop-color="#ff7300" stop-opacity="0.02"/><stop offset="1" stop-color="#ff7300" stop-opacity="0"/></radialGradient><radialGradient id="radial-gradient-2" cx="-954.95" cy="49.14" r="4.44" gradientTransform="matrix(-1.1, 0, 0, 0.59, -912.55, 20.08)" xlink:href="#radial-gradient"/></defs><g id="Layer_2" data-name="Layer 2"><g id="Layer_2-2" data-name="Layer 2"><g id="Layer_3" data-name="Layer 3"><path class="cls-1" d="M85.47,11.06a20.84,20.84,0,0,1,7-9.33C94.69.19,96,0,96.77,0c3.44,0,5.78,3.1,6.19,3.66a10.12,10.12,0,0,0-6.52-1.5,10.57,10.57,0,0,0-4,1.54C88.94,5.76,88.3,7.09,85.47,11.06Z"/><path class="cls-1" d="M156,11.06a20.88,20.88,0,0,0-7-9.33C146.75.19,145.43,0,144.66,0c-3.44,0-5.78,3.1-6.19,3.66A10.14,10.14,0,0,1,145,2.16a10.57,10.57,0,0,1,4,1.54C152.5,5.76,153.14,7.09,156,11.06Z"/><path class="cls-2" d="M111.58,26.58q0,.92-.06,1.8v0C111.14,34.05,109,39,105.94,42a4.42,4.42,0,0,1-1-.07,14.37,14.37,0,0,0-9.08,1.2l-.33.16a13.48,13.48,0,0,0-1.38.81c-4.92-2.65-8.43-9.5-8.43-17.53a25.69,25.69,0,0,1,1.55-8.88,0,0,0,0,1,0,0,18.88,18.88,0,0,1,3-5.37,10.85,10.85,0,0,1,8.34-4.41C105.78,7.89,111.58,16.26,111.58,26.58Z"/><path class="cls-3" d="M110.91,33.61c0,3.76-1.56,7-4,8.63a19.06,19.06,0,0,0-8.29-.1,10.28,10.28,0,0,1-4.35-8.66c0-5.5,3.29-9.71,8-9.71S110.91,28.1,110.91,33.61Z"/><path class="cls-4" d="M109.16,33.61c0,4.35-2.65,7.78-6.4,7.78S96,37.86,96,33.51s2.59-7.68,6.35-7.68S109.16,29.26,109.16,33.61Z"/><path d="M106.44,33.61c0,2.56-1.56,4.57-3.76,4.57s-4-2.07-4-4.63S100.21,29,102.42,29A4.31,4.31,0,0,1,106.44,33.61Z"/><path class="cls-2" d="M101.84,32.61c0,.56-.32,1-.78,1a.94.94,0,0,1-.84-1c0-.56.32-1,.78-1A.93.93,0,0,1,101.84,32.61Z"/><path class="cls-2" d="M104.09,33.61c0,1.06-.61,1.89-1.48,1.89A1.77,1.77,0,0,1,101,33.59c0-1.06.61-1.87,1.48-1.87A1.75,1.75,0,0,1,104.09,33.61Z"/><path class="cls-5" d="M112.79,26.3c-.63-11-7.85-19.63-14.07-19.63C91,6.67,84.79,13.39,84.79,26.3c0,8.18,3.76,15.13,8.89,18.09a4.08,4.08,0,0,1,.44-.28,13.48,13.48,0,0,1,1.38-.81,14.15,14.15,0,0,1-4.67-4.2l0,0a21.7,21.7,0,0,1-4.06-11.8v0c0-.33,0-.68,0-1,0-6.6,2.63-11.92,5.86-14.74l0,0a9.07,9.07,0,0,1,3.6-2l.35-.07a4.93,4.93,0,0,1,.85-.1h.34a9.72,9.72,0,0,1,5,1.76l0,0a19.08,19.08,0,0,1,7.88,15.15c.27,8.14-1.92,13.15-5.09,15.74.06,0,1.27.25,1.68.37C110.89,38.81,113.17,33,112.79,26.3Z"/><path class="cls-1" d="M112.08,44.84a23.23,23.23,0,0,0-2.81-1c-.51-.14-1-.28-1.62-.39l-.44-.09c-.68-.11-1.4-.2-2.17-.25a24.09,24.09,0,0,0-3,0,11.38,11.38,0,0,0-1.32.1c-.35,0-.69.09-1,.16h0a17.06,17.06,0,0,0-1.84.43l-.64.21c-4.08,1.33-6.77,3.69-6.89,3.48S92.41,44.71,96,43l.48-.2A12.93,12.93,0,0,1,98,42.29l.35-.1.2,0a19.06,19.06,0,0,1,8.29.1,8.88,8.88,0,0,1,1.76.61C109,43,111.53,44.46,112.08,44.84Z"/><ellipse class="cls-6" cx="100.32" cy="49.14" rx="4.83" ry="2.53"/><path class="cls-1" d="M134.3,63.73c-.35,0-.27-1.4-1.27-3a7.77,7.77,0,0,0-2.43-2.46,4,4,0,0,1,4.17,1.62C135.69,61.49,134.74,63.73,134.3,63.73Z"/><path class="cls-2" d="M130,26.58q0,.92.06,1.8v0c.38,5.65,2.5,10.56,5.58,13.61a4.42,4.42,0,0,0,1-.07,14.37,14.37,0,0,1,9.08,1.2l.33.16a13.48,13.48,0,0,1,1.38.81c4.92-2.65,8.43-9.5,8.43-17.53a25.69,25.69,0,0,0-1.55-8.88,0,0,0,0,0,0,0,18.88,18.88,0,0,0-3-5.37A10.85,10.85,0,0,0,143,7.89C135.84,7.89,130,16.26,130,26.58Z"/><path class="cls-3" d="M130.72,33.61c0,3.76,1.56,7,4.05,8.63a19.06,19.06,0,0,1,8.29-.1,10.28,10.28,0,0,0,4.35-8.66c0-5.5-3.29-9.71-8-9.71S130.72,28.1,130.72,33.61Z"/><path class="cls-4" d="M132.47,33.61c0,4.35,2.64,7.78,6.4,7.78s6.79-3.53,6.79-7.88-2.6-7.68-6.35-7.68S132.47,29.26,132.47,33.61Z"/><path d="M135.19,33.61c0,2.56,1.55,4.57,3.76,4.57s4-2.07,4-4.63S141.41,29,139.21,29A4.31,4.31,0,0,0,135.19,33.61Z"/><path class="cls-2" d="M139.78,32.61c0,.56.33,1,.79,1a.93.93,0,0,0,.83-1c0-.56-.31-1-.78-1A.93.93,0,0,0,139.78,32.61Z"/><path class="cls-2" d="M137.53,33.61c0,1.06.62,1.89,1.49,1.89a1.77,1.77,0,0,0,1.57-1.91c0-1.06-.6-1.87-1.47-1.87A1.75,1.75,0,0,0,137.53,33.61Z"/><path class="cls-5" d="M134.31,42.35c.41-.12,1.63-.36,1.69-.37-3.17-2.59-5.37-7.6-5.1-15.74a19.08,19.08,0,0,1,7.88-15.15l0,0a9.72,9.72,0,0,1,5.05-1.76h.34a4.93,4.93,0,0,1,.85.1l.35.07a9.07,9.07,0,0,1,3.6,2l0,0c3.23,2.82,5.86,8.14,5.86,14.74,0,.34,0,.69,0,1v0a21.7,21.7,0,0,1-4.06,11.8l0,0a14.15,14.15,0,0,1-4.67,4.2,13.48,13.48,0,0,1,1.38.81,4.08,4.08,0,0,1,.44.28c5.13-3,8.89-9.91,8.89-18.09,0-12.91-6.22-19.63-13.93-19.63-6.22,0-13.44,8.66-14.07,19.63C128.45,33,130.73,38.81,134.31,42.35Z"/><path class="cls-1" d="M129.55,44.84a23.23,23.23,0,0,1,2.81-1c.51-.14,1-.28,1.62-.39l.44-.09c.68-.11,1.4-.2,2.17-.25a24.09,24.09,0,0,1,3,0,11.38,11.38,0,0,1,1.32.1c.35,0,.69.09,1,.16h0a17.06,17.06,0,0,1,1.84.43l.64.21c4.08,1.33,6.77,3.69,6.89,3.48s-2.08-2.73-5.7-4.4l-.48-.2a12.93,12.93,0,0,0-1.51-.55l-.35-.1-.2,0a19.06,19.06,0,0,0-8.29.1,8.88,8.88,0,0,0-1.76.61C132.66,43,130.1,44.46,129.55,44.84Z"/><ellipse class="cls-7" cx="141.31" cy="49.14" rx="4.83" ry="2.53"/><path class="cls-5" d="M105.91,64.44a21.14,21.14,0,0,0,11.25,3.38c9,0,14.84-6,15.87-7.13a16.3,16.3,0,0,1-8.75,8.88C118.19,71.93,110.82,69.92,105.91,64.44Z"/><path class="cls-2" d="M26.52,14.48a3.2,3.2,0,0,0-.28-.7l-.36-.57-.72-1.15A7.29,7.29,0,0,0,24.33,11a1.66,1.66,0,0,0-1.2-.53v.06h-.06c.45-1.28.89-2.55,1.3-3.85l0-.08V6.52a3.54,3.54,0,0,0-1.92-3.14,4.85,4.85,0,0,0-1.59-.55,12.23,12.23,0,0,0-1.58-.15A48.91,48.91,0,0,0,13.13,3C11.08,3.15,9,3.43,7,3.74a8.09,8.09,0,0,0-3,.78A6.12,6.12,0,0,0,1.71,6.9,14,14,0,0,0,0,13.45a31,31,0,0,0,.46,6.81,22.42,22.42,0,0,0,.8,3.33,9.84,9.84,0,0,0,1.55,3.15,7.74,7.74,0,0,0,.67.63l.65.48c.43.32.86.62,1.3.92.88.6,1.76,1.17,2.7,1.71l.12.07h.15q6.75.06,13.5,0h.24l.14-.17a17,17,0,0,0,3.06-4.66,5.36,5.36,0,0,0,.36-1.47c.05-.43.13-.89.2-1.34l.45-2.74c.14-.92.26-1.85.32-2.79A8.94,8.94,0,0,0,26.52,14.48Z"/><path class="cls-2" d="M16.55,9.85a6.35,6.35,0,0,0-3.08.65c-1.28.75-.77,2.63-.17,3.94s5.81,3,6.84,1.78S23.9,6.47,23.9,6.47a3.13,3.13,0,0,0-2.39-3c-2.57-.94-11,0-11,0S5.86,4,5.26,4.22,2.1,4.91.82,9.77s.25,15.08,2.9,17.05l.08.05a15.64,15.64,0,0,0,9.3,3h8.83s3.08-3.28,3.34-5.63,2-8.34.77-10.4-1.8-3.38-2.91-3.38"/><path d="M16.54,9.91a6.31,6.31,0,0,0-2.87.71,1.38,1.38,0,0,0-.74,1.12,3.78,3.78,0,0,0,.22,1.5,6.46,6.46,0,0,0,.28.73,2.75,2.75,0,0,0,.16.34,1,1,0,0,0,.19.23,4.81,4.81,0,0,0,1.22.75,11.41,11.41,0,0,0,2.83.81,5,5,0,0,0,1.39,0c.48-.08.6-.18.85-.68a26.22,26.22,0,0,0,1.23-3c.74-2.05,1.44-4.13,2.13-6.2l0,.13A2.31,2.31,0,0,0,23,5.21a2.85,2.85,0,0,0-1-.93,6.08,6.08,0,0,0-2.78-.74,47.73,47.73,0,0,0-6.1,0c-2.05.09-4.08.35-6.11.61a7.48,7.48,0,0,0-2.9.78A5.66,5.66,0,0,0,2.08,7.14,13.33,13.33,0,0,0,.71,13.48a33.78,33.78,0,0,0,.68,6.58,22.14,22.14,0,0,0,.85,3.15,11.61,11.61,0,0,0,1.44,2.27A9.62,9.62,0,0,0,6,27.72h0l0,0a9.76,9.76,0,0,0,5.41,1.57c1.89,0,4.47,0,6.84,0a6.78,6.78,0,0,0,6.24-4.14h0a5.45,5.45,0,0,0,.31-1.25c.06-.42.14-.82.22-1.22l.56-2.7c.18-.9.34-1.8.44-2.7a8.76,8.76,0,0,0,0-2.66,2.34,2.34,0,0,0-.2-.58l-.31-.6-.64-1.2c-.44-.74-.92-1.63-1.78-1.67v-.13a1.66,1.66,0,0,1,1.2.53,7.29,7.29,0,0,1,.83,1.09l.72,1.15.36.57a3.2,3.2,0,0,1,.28.7,8.94,8.94,0,0,1,.18,2.86c-.06.94-.18,1.87-.32,2.79l-.45,2.74c-.07.45-.15.91-.2,1.34a5.27,5.27,0,0,1-.36,1.47,17,17,0,0,1-3.06,4.66l-.14.17h-.24q-6.75.09-13.51,0H8.28l-.12-.07c-.94-.54-1.82-1.11-2.7-1.71-.44-.3-.87-.6-1.3-.92l-.65-.48a7.74,7.74,0,0,1-.67-.63,9.84,9.84,0,0,1-1.55-3.15,22.42,22.42,0,0,1-.8-3.33A31,31,0,0,1,0,13.45,14,14,0,0,1,1.71,6.9,6.12,6.12,0,0,1,4,4.52a8.09,8.09,0,0,1,3-.78c2-.31,4.06-.59,6.11-.77a48.91,48.91,0,0,1,6.18-.29,12.23,12.23,0,0,1,1.58.15,4.85,4.85,0,0,1,1.59.55A3.54,3.54,0,0,1,24.4,6.52v.05l0,.08c-.67,2.11-1.39,4.19-2.18,6.24A29.29,29.29,0,0,1,20.85,16a3.52,3.52,0,0,1-.24.4l-.14.2-.22.19a2,2,0,0,1-.91.34A5.86,5.86,0,0,1,17.71,17a11.49,11.49,0,0,1-3-1,5.16,5.16,0,0,1-1.37-.94,1.89,1.89,0,0,1-.3-.41c-.07-.14-.11-.26-.17-.4s-.19-.54-.27-.81a4.23,4.23,0,0,1-.14-1.78,1.82,1.82,0,0,1,1-1.39,6.05,6.05,0,0,1,3-.47Z"/><path class="cls-2" d="M19.35,8.63A10.43,10.43,0,0,1,15.13,10"/><path d="M19.39,8.65a5.86,5.86,0,0,1-1.78,1.14,3.35,3.35,0,0,1-1.13.38A3,3,0,0,1,15.14,10l0-.08a3.46,3.46,0,0,1,1-.53,7.13,7.13,0,0,1,1.08-.2A14.37,14.37,0,0,0,19.3,8.6Z"/><path class="cls-2" d="M8.74,13.05a17,17,0,0,0,4.64,1.66"/><path d="M8.78,13c.75.3,1.54.57,2.33.81.39.12.83.18,1.18.32a6.83,6.83,0,0,1,1.1.52l0,.05a4.93,4.93,0,0,1-1.44-.1,5.84,5.84,0,0,1-1.22-.46,10.25,10.25,0,0,1-2-1.11Z"/><path class="cls-2" d="M10.41,19a22.68,22.68,0,0,0,3-4.63"/><path d="M10.41,18.91c.51-.74,1-1.53,1.47-2.33.23-.4.43-.85.67-1.21a7.94,7.94,0,0,1,.82-1.06l0,0a7.06,7.06,0,0,1-.55,1.52,8,8,0,0,1-.8,1.22A13.56,13.56,0,0,1,10.41,19Z"/><path class="cls-2" d="M14.51,4.35a17.88,17.88,0,0,0,.67,5.59"/><path d="M14.54,4.35a26.33,26.33,0,0,0,.36,2.78,11.67,11.67,0,0,1,.27,1.28,9,9,0,0,1,0,1.5l-.06.06a2.44,2.44,0,0,1-.64-1.14,5.74,5.74,0,0,1-.16-1.51,15.52,15.52,0,0,1,.12-3Z"/><path class="cls-8" d="M15.85,11a3.82,3.82,0,0,1-1,1.07,1.23,1.23,0,0,0-.44,1.3,1,1,0,0,0,1,.5,2.42,2.42,0,0,0,1.06-.38A7.27,7.27,0,0,0,20,9.3a4.26,4.26,0,0,0-1.88-4.85c-1.52-.76-3.51-.36-4.82-1.42a10,10,0,0,0,3.45-.09,12.53,12.53,0,0,1,3.45-.21,3.84,3.84,0,0,1,2.87,1.73c.78,1.37.28,3.08-.24,4.57-.45,1.34-.91,2.67-1.37,4a7,7,0,0,1-1.15,2.35,4.33,4.33,0,0,1-3.93,1.33,6.84,6.84,0,0,1-3.74-2,4.34,4.34,0,0,1-1.28-2.07,2.08,2.08,0,0,1,.78-2.18c.74-.47,1.7-.29,2.53-.44C15.34,9.86,16.33,9.91,15.85,11Z"/><path class="cls-8" d="M22.4,19a5.82,5.82,0,0,1-.65,3.88,6.76,6.76,0,0,1-3.48,2.51,28.41,28.41,0,0,1-12.47,2,4.43,4.43,0,0,0,2.59,1.91,12.07,12.07,0,0,0,3.17.38l7.91.23a5.33,5.33,0,0,0,3.47-.69,5.93,5.93,0,0,0,1.71-2.77,33,33,0,0,0,1.77-7.82,10.42,10.42,0,0,0-.11-4.24,12.33,12.33,0,0,0-2.08-3.48,1.14,1.14,0,0,0-1.49-.24,2,2,0,0,0-.62.94,34.08,34.08,0,0,0-1.44,3.62C21.78,15.49,22.24,17.94,22.4,19Z"/><path d="M21.13,14.76a7.21,7.21,0,0,1-.12.83l-.38.67c-.26.46-.52.91-.8,1.36s-.57.9-.87,1.33c-.15.22-.31.43-.47.64-.72,1-1.43.87-.43-.5.15-.19.29-.39.44-.59.28-.41.55-.82.82-1.25s.51-.87.77-1.32l.38-.67A4.58,4.58,0,0,1,21.13,14.76Z"/><path class="cls-9" d="M3.26,26.59C2.64,26.54,1.7,28,1.66,29.4A5,5,0,0,0,3.41,33c3.4,3.27,9.63,2.76,11.37,2.62,1.25-.1,7.34-.6,9.7-3.81a5.16,5.16,0,0,0,1.17-3.38,4.35,4.35,0,0,0-.59-1.93,6,6,0,0,1-1.89,2.31c-1,.69-2,1-7.07,1.44-3.5.28-5.71.8-8,0A8.58,8.58,0,0,1,5,28.43C3.75,27.35,3.86,26.64,3.26,26.59Z"/><path d="M56.32,79.86c5.86-1.06,19.24-5.33,27.26-8.36a2.14,2.14,0,0,0,1.2-2.62l-1.87-6.43a3.18,3.18,0,0,0-4.21-2.27c-3.13,1.39-6.86,5.41-9.47,7.44A1.73,1.73,0,0,1,66.6,67c-2-4.23-8-8.5-13.89-7.59-5.75.89-9.65,6.45-10.41,11a2.52,2.52,0,0,1-2.47,2.17A12.75,12.75,0,0,1,36.11,72c-13.45-4.1-15.74-31.24-16.76-37.2C10.46,37.4,10,35.14,7.12,35a240.92,240.92,0,0,0,8.69,28.75C19.93,75,25.13,77.54,26.74,78.49c3.15,1.89,8.45,3.44,21.77,2.59A72.4,72.4,0,0,0,56.1,79.9h0Z"/><path class="cls-2" d="M215.11,14.48a3.2,3.2,0,0,1,.28-.7l.35-.57.72-1.15A6.74,6.74,0,0,1,217.3,11a1.65,1.65,0,0,1,1.2-.53v.06h.06c-.46-1.28-.89-2.55-1.31-3.85l0-.08V6.52a3.52,3.52,0,0,1,1.92-3.14,4.88,4.88,0,0,1,1.58-.55,12.4,12.4,0,0,1,1.58-.15,48.74,48.74,0,0,1,6.18.29c2,.18,4.09.46,6.12.77a8.14,8.14,0,0,1,3,.78,6.19,6.19,0,0,1,2.27,2.38,14.1,14.1,0,0,1,1.68,6.55,31.64,31.64,0,0,1-.46,6.81,23.74,23.74,0,0,1-.8,3.33,9.84,9.84,0,0,1-1.55,3.15,6.59,6.59,0,0,1-.68.63l-.64.48c-.43.32-.86.62-1.3.92-.89.6-1.77,1.17-2.71,1.71l-.11.07h-.15q-6.75.06-13.51,0h-.24l-.14-.17a17.42,17.42,0,0,1-3.06-4.66,6.2,6.2,0,0,1-.36-1.47c0-.43-.12-.89-.19-1.34l-.46-2.74c-.14-.92-.26-1.85-.32-2.79A8.67,8.67,0,0,1,215.11,14.48Z"/><path class="cls-2" d="M225.08,9.85a6.35,6.35,0,0,1,3.08.65c1.28.75.77,2.63.17,3.94s-5.82,3-6.84,1.78-3.76-9.75-3.76-9.75a3.13,3.13,0,0,1,2.39-3c2.57-.94,11,0,11,0s4.62.56,5.21.75,3.17.69,4.45,5.55-.26,15.08-2.91,17.05l-.08.05a15.59,15.59,0,0,1-9.3,3h-8.83s-3.07-3.28-3.33-5.63-2-8.34-.77-10.4,1.8-3.38,2.91-3.38"/><path d="M225.08,9.91a6.32,6.32,0,0,1,2.88.71,1.35,1.35,0,0,1,.73,1.12,4,4,0,0,1-.21,1.5,6.46,6.46,0,0,1-.28.73,1.79,1.79,0,0,1-.17.34.67.67,0,0,1-.19.23,4.64,4.64,0,0,1-1.22.75,11.34,11.34,0,0,1-2.82.81,5.08,5.08,0,0,1-1.4,0c-.47-.08-.59-.18-.85-.68a30.53,30.53,0,0,1-1.23-3c-.74-2.05-1.43-4.13-2.12-6.2l0,.13a2.31,2.31,0,0,1,.36-1.21,2.77,2.77,0,0,1,1-.93,6.08,6.08,0,0,1,2.78-.74,47.72,47.72,0,0,1,6.1,0c2,.09,4.07.35,6.11.61a7.48,7.48,0,0,1,2.9.78,5.66,5.66,0,0,1,2.08,2.25,13.21,13.21,0,0,1,1.36,6.34,33,33,0,0,1-.67,6.58,23.56,23.56,0,0,1-.85,3.15,11.74,11.74,0,0,1-1.45,2.27,9.44,9.44,0,0,1-2.35,2.24h0l0,0a9.81,9.81,0,0,1-5.41,1.57c-1.9,0-4.47,0-6.84,0a6.8,6.8,0,0,1-6.25-4.14h0a6,6,0,0,1-.3-1.25c-.06-.42-.14-.82-.22-1.22L216,20c-.17-.9-.33-1.8-.43-2.7a8.46,8.46,0,0,1,0-2.66,2.81,2.81,0,0,1,.19-.58l.32-.6.64-1.2c.44-.74.92-1.63,1.78-1.67v-.13a1.65,1.65,0,0,0-1.2.53,6.74,6.74,0,0,0-.84,1.09l-.72,1.15-.35.57a3.2,3.2,0,0,0-.28.7,8.67,8.67,0,0,0-.19,2.86c.06.94.18,1.87.32,2.79l.46,2.74c.07.45.15.91.19,1.34a6.08,6.08,0,0,0,.36,1.47,17.42,17.42,0,0,0,3.06,4.66l.14.17h.24q6.76.09,13.51,0h.15l.11-.07c.94-.54,1.82-1.11,2.71-1.71.44-.3.87-.6,1.3-.92l.64-.48a6.59,6.59,0,0,0,.68-.63,9.84,9.84,0,0,0,1.55-3.15,23.74,23.74,0,0,0,.8-3.33,31.64,31.64,0,0,0,.46-6.81,14.1,14.1,0,0,0-1.68-6.55,6.19,6.19,0,0,0-2.27-2.38,8.14,8.14,0,0,0-3-.78c-2-.31-4.07-.59-6.12-.77a48.74,48.74,0,0,0-6.18-.29,12.4,12.4,0,0,0-1.58.15,4.88,4.88,0,0,0-1.58.55,3.52,3.52,0,0,0-1.92,3.14v.05l0,.08c.67,2.11,1.39,4.19,2.19,6.24A29.29,29.29,0,0,0,220.78,16a2.49,2.49,0,0,0,.24.4l.14.2.22.19a2,2,0,0,0,.91.34,5.88,5.88,0,0,0,1.63-.07,11.3,11.3,0,0,0,3-1,5,5,0,0,0,1.38-.94,1.86,1.86,0,0,0,.29-.41,3.52,3.52,0,0,0,.18-.4c.1-.26.19-.54.27-.81a4.23,4.23,0,0,0,.14-1.78,1.82,1.82,0,0,0-1-1.39,6.07,6.07,0,0,0-3-.47Z"/><path class="cls-2" d="M222.28,8.63A10.36,10.36,0,0,0,226.5,10"/><path d="M222.23,8.65A5.91,5.91,0,0,0,224,9.79a3.29,3.29,0,0,0,1.12.38,3,3,0,0,0,1.35-.15l0-.08a3.38,3.38,0,0,0-1-.53,6.78,6.78,0,0,0-1.07-.2,14.85,14.85,0,0,1-2.14-.61Z"/><path class="cls-2" d="M232.89,13.05a17,17,0,0,1-4.64,1.66"/><path d="M232.85,13c-.75.3-1.54.57-2.33.81-.4.12-.83.18-1.19.32a7.17,7.17,0,0,0-1.09.52l0,.05a4.83,4.83,0,0,0,1.43-.1,5.93,5.93,0,0,0,1.23-.46,10.45,10.45,0,0,0,2-1.11Z"/><path class="cls-2" d="M231.22,19a22.68,22.68,0,0,1-3-4.63"/><path d="M231.22,18.91c-.52-.74-1-1.53-1.47-2.33-.24-.4-.43-.85-.68-1.21a7.85,7.85,0,0,0-.81-1.06l0,0a6.56,6.56,0,0,0,.55,1.52,8,8,0,0,0,.8,1.22A14.22,14.22,0,0,0,231.21,19Z"/><path class="cls-2" d="M227.12,4.35a18,18,0,0,1-.68,5.59"/><path d="M227.08,4.35a26.37,26.37,0,0,1-.35,2.78c-.08.45-.24.83-.28,1.28a10.19,10.19,0,0,0,0,1.5l.07.06a2.44,2.44,0,0,0,.64-1.14,6.19,6.19,0,0,0,.16-1.51,16.37,16.37,0,0,0-.13-3Z"/><path class="cls-8" d="M225.77,11a4.14,4.14,0,0,0,1,1.07,1.23,1.23,0,0,1,.44,1.3,1,1,0,0,1-.94.5,2.42,2.42,0,0,1-1.06-.38,7.23,7.23,0,0,1-3.57-4.16,4.24,4.24,0,0,1,1.88-4.85C225,3.69,227,4.09,228.32,3a10,10,0,0,1-3.45-.09,12.55,12.55,0,0,0-3.45-.21,3.84,3.84,0,0,0-2.87,1.73c-.78,1.37-.28,3.08.23,4.57.46,1.34.92,2.67,1.37,4a7.35,7.35,0,0,0,1.15,2.35,4.34,4.34,0,0,0,3.94,1.33,6.84,6.84,0,0,0,3.74-2,4.42,4.42,0,0,0,1.28-2.07,2.09,2.09,0,0,0-.78-2.18c-.74-.47-1.7-.29-2.53-.44C226.29,9.86,225.3,9.91,225.77,11Z"/><path class="cls-8" d="M219.23,19a5.82,5.82,0,0,0,.64,3.88,6.78,6.78,0,0,0,3.49,2.51,28.38,28.38,0,0,0,12.47,2,4.46,4.46,0,0,1-2.59,1.91,12.07,12.07,0,0,1-3.17.38l-7.91.23a5.33,5.33,0,0,1-3.47-.69A5.78,5.78,0,0,1,217,26.44a33.5,33.5,0,0,1-1.78-7.82,10.78,10.78,0,0,1,.11-4.24,12.82,12.82,0,0,1,2.08-3.48,1.15,1.15,0,0,1,1.5-.24,1.93,1.93,0,0,1,.61.94A34.15,34.15,0,0,1,221,15.22C219.85,15.49,219.39,17.94,219.23,19Z"/><path d="M220.5,14.76c0,.29.07.56.11.83s.26.45.39.67c.26.46.52.91.8,1.36s.56.9.87,1.33c.15.22.31.43.47.64.71,1,1.42.87.43-.5-.15-.19-.3-.39-.44-.59-.28-.41-.56-.82-.82-1.25s-.52-.87-.77-1.32l-.38-.67A4.58,4.58,0,0,0,220.5,14.76Z"/><path class="cls-9" d="M238.36,26.59c.62-.05,1.56,1.37,1.61,2.81A5.07,5.07,0,0,1,238.22,33c-3.4,3.27-9.64,2.76-11.38,2.62-1.25-.1-7.33-.6-9.69-3.81A5.16,5.16,0,0,1,216,28.4a4.5,4.5,0,0,1,.58-1.93,6,6,0,0,0,1.9,2.31c.95.69,2,1,7.07,1.44,3.5.28,5.71.8,8,0a8.64,8.64,0,0,0,3.12-1.79C237.88,27.35,237.77,26.64,238.36,26.59Z"/><path d="M185.31,79.86c-5.86-1.06-19.24-5.33-27.27-8.36a2.14,2.14,0,0,1-1.19-2.62l1.86-6.43a3.19,3.19,0,0,1,4.22-2.27c3.12,1.39,6.85,5.41,9.46,7.44A1.73,1.73,0,0,0,175,67c2.06-4.23,8-8.5,13.89-7.59,5.75.89,9.66,6.45,10.42,11a2.52,2.52,0,0,0,2.47,2.17,12.75,12.75,0,0,0,3.72-.51c13.45-4.1,15.74-31.24,16.76-37.2,8.89,2.59,9.3.33,12.23.22a242.79,242.79,0,0,1-8.69,28.75C221.7,75,216.49,77.54,214.89,78.49c-3.16,1.89-8.45,3.44-21.78,2.59a72.66,72.66,0,0,1-7.58-1.18h-.05Z"/><path class="cls-10" d="M59.8,63.15c.42,2-2.93,1.7-6.54,2.47s-6.12,2.28-6.54.31,2.17-4.18,5.78-5S59.38,61.18,59.8,63.15Z"/><path class="cls-10" d="M195,66.21c-.43,2-3.36.34-7-.45s-6.51-.45-6.08-2.41,3.7-2.92,7.31-2.13S195.44,64.25,195,66.21Z"/></g></g></g></svg>